<?xml version="1.0" encoding="UTF-8"?><svg id="_Ænder_der_falder" xmlns="http://www.w3.org/2000/svg" width="300" height="300" viewBox="0 0 300 300"><defs><style>.cls-1{fill:#e04a10;}.cls-2{fill:#5c5958;}.cls-3{fill:#adacab;}.cls-4{fill:#ffffeb;}.cls-5{fill:#ff6124;}.cls-6{fill:#ffea93;}.cls-7{fill:#ff8454;}.cls-8,.cls-9{fill:#fff;}.cls-10{fill:#754c24;}.cls-9{stroke:#fff;}.cls-9,.cls-11{stroke-miterlimit:10;}.cls-11{stroke:#000;}.cls-12{fill:#bf2900;}</style></defs><path class="cls-6" d="M149.35,225.71c-20.81,0-39.31-6.89-49.49-18.43-6.89-7.8-9.69-17.23-8.35-28.03.66-3.66,1.11-7.55,1.59-11.68,1.13-9.64,2.29-19.62,6.26-27.49,2.79-5.52,5.09-7.98,7.49-7.98,2.11,0,4.42,1.81,7.34,4.11,2.22,1.74,4.74,3.72,7.86,5.49,4.35,2.47,10.73,3,15.85,3.43.99.08,1.94.16,2.83.25l.87.09-.36-.79c-6.45-14.03-5.55-31.01,2.29-43.24,6.4-9.99,16.6-15.49,28.73-15.5,15.11,0,27.97,10.14,32.79,25.83,4.2,13.7,1.64,32.13-13.56,42.42l-.73.5.8.37c6.11,2.84,19.74,12.46,14.46,40.37-6.79,18.37-29.05,30.29-56.66,30.29h-.01Z"/><path class="cls-10" d="M172.28,86.44c7.73,0,14.88,2.58,20.68,7.47,5.37,4.52,9.38,10.74,11.61,18,2.31,7.52,2.44,15.63.38,22.84-2.25,7.88-7,14.46-13.74,19.02l-1.46.99,1.6.74c5.99,2.79,19.37,12.24,14.2,39.74-6.78,18.21-28.82,29.96-56.2,29.96-20.66,0-39.02-6.82-49.12-18.25-6.78-7.68-9.55-16.97-8.23-27.62.66-3.69,1.12-7.59,1.6-11.71,1.12-9.6,2.28-19.53,6.21-27.32,2.69-5.33,4.86-7.71,7.04-7.71,1.93,0,4.18,1.77,7.04,4,2.23,1.75,4.77,3.74,7.93,5.53,4.45,2.52,10.88,3.06,16.06,3.5.99.08,1.93.16,2.83.25l1.74.17-.73-1.59c-6.38-13.88-5.49-30.67,2.25-42.76,6.31-9.84,16.36-15.26,28.3-15.27h.01M172.28,85.44h-.01c-30.65.01-43.15,34.02-31.47,59.45-5.6-.56-13.42-.74-18.49-3.62-7.39-4.19-11.53-9.67-15.46-9.67-2.48,0-4.87,2.18-7.93,8.26-5.7,11.3-5.68,26.95-7.9,39.33-3.87,31.01,27.15,47.02,58.34,47.02,24.72,0,49.54-10.06,57.17-30.7,5.41-28.64-9.09-38.28-14.74-40.91,28.78-19.49,15.25-69.16-19.5-69.16h0Z"/><path class="cls-10" d="M112.16,176.95c-2.4-1.22-4.51-2.73-4.38-5.72.11-2.54.98-5.2,1.5-7.68.4-1.91.59-5.62,3.11-5.88,2.16-.22,4.24,1.43,5.9,2.58,4.01,2.79,8.45,4.36,13.1,5.73,3.92,1.16,8.33,2.5,10.41,6.34,1.71,3.16,1.64,7.04,1.04,10.49-.62,3.53-1.82,7-3.41,10.21-1.98,4-5.89,6.09-9.97,7.44-4.74,1.56-9.79,1.35-14.5-.2-3.77-1.23-7.36-3.29-10.06-6.22-3.11-3.38-4.53-7.71-4.16-12.28.04-.48-.71-.48-.75,0-.69,8.66,5.12,15.31,12.78,18.48,4.44,1.84,9.4,2.57,14.15,1.66,4.33-.84,9.15-2.84,11.89-6.43,1.26-1.64,2.06-3.64,2.8-5.56.76-1.98,1.39-4.02,1.81-6.1.72-3.59.95-7.55-.54-10.98-1.75-4.05-5.68-5.81-9.66-7.08-2.65-.84-5.34-1.52-7.91-2.57-2.84-1.16-5.29-2.73-7.83-4.41-1.63-1.08-4-2.45-6.03-1.64-2.2.88-2.41,4.01-2.83,5.97-.36,1.69-.69,3.39-1.07,5.08-.31,1.39-.65,2.83-.46,4.27.34,2.62,2.54,4.04,4.71,5.14.43.22.81-.43.38-.65h0Z"/><path class="cls-10" d="M107.13,170.25c-.88.99-2.14,1.56-2.88,2.7-.65,1.02-.87,2.29-.76,3.48.27,2.68,2.22,4.55,4.48,5.78.42.23.8-.42.38-.65-2.06-1.12-3.94-2.82-4.12-5.3-.08-1.07.13-2.19.76-3.08.7-.99,1.87-1.52,2.67-2.42.32-.36-.21-.89-.53-.53h0Z"/><path class="cls-10" d="M104.37,177.23c-.23-.82-1.03-1.23-1.85-1.07-1,.19-1.58,1.14-1.91,2.02-.43,1.14-.61,2.41-.7,3.62-.1,1.31-.02,2.62.2,3.91.08.47.8.27.72-.2-.34-2.01-.28-4.08.18-6.06.18-.79.43-1.69,1.06-2.25.47-.42,1.37-.51,1.58.23.13.46.85.27.72-.2h0Z"/><ellipse class="cls-11" cx="172.34" cy="116.42" rx="8.3" ry="6.22" transform="translate(52.44 286.36) rotate(-88.83)"/><ellipse class="cls-9" cx="170.44" cy="112.82" rx="1.48" ry="1.14" transform="translate(11.46 241.29) rotate(-72.44)"/><ellipse class="cls-11" cx="195.98" cy="111.56" rx="5.44" ry="8.3" transform="translate(-3.76 6.88) rotate(-1.99)"/><ellipse class="cls-9" cx="194.11" cy="108.09" rx="1.47" ry="1" transform="translate(57.71 283.47) rotate(-81.24)"/><path class="cls-10" d="M141.09,145.45c1.49,2.23,3.61,3.97,6.11,4.94.45.18.64-.55.2-.72-2.31-.9-4.29-2.54-5.67-4.6-.27-.4-.92-.02-.65.38h0Z"/><ellipse class="cls-8" cx="168.51" cy="115.34" rx=".63" ry=".59" transform="translate(49.77 281.47) rotate(-88.83)"/><ellipse class="cls-8" cx="192.16" cy="110.51" rx=".63" ry=".59" transform="translate(77.76 300.38) rotate(-88.83)"/><path class="cls-4" d="M114.91,139.52c-.12.31-4.04-2.8-4.98-1.78,0,0-.68.73-.1,6.09,0,0,0,.02,0,.03-.01.01-.04,0-.06-.02-.41-.53-3.24-4.34-2.5-7.42.11-.45.35-1.46,1.12-1.67.48-.13,1.06.08,4.34,2.76,1.83,1.5,2.23,1.91,2.18,2.01Z"/><path class="cls-10" d="M107.69,132.48c-3.07,2.42-2.97,6.67-1.38,9.91.21.43.86.05.65-.38-1.46-2.97-1.53-6.79,1.27-9,.38-.3-.16-.83-.53-.53h0Z"/><path class="cls-4" d="M165.58,90.62c-.45-.95-13.71,2.5-18.85,12.2-.17.32-2.44,4.67-1.37,5.67,1.16,1.08,5.58-2.33,5.93-2.61,4.41-3.45,4.53-6.26,9.29-11.01,3.28-3.27,5.18-3.89,5-4.25Z"/><path class="cls-4" d="M180.07,216.14c.49.77,17.02-7.64,22.16-20.2.58-1.42,1.82-4.54.64-5.81-1.19-1.28-4.72-.56-7.04,1.44-3.69,3.18-2.03,7.6-6.51,14.09-.53.76-1.14,1.5-2.36,2.98-4.7,5.69-7.1,7.2-6.91,7.51Z"/><ellipse cx="163.57" cy="97.83" rx="43.57" ry="9.59" transform="translate(-24.94 69.73) rotate(-22.41)"/><path d="M168.03,66.95l-27.91,11.45c-7.13,2.92-10.69,11.43-7.91,18.89l1.02,2.76c2.78,7.47,10.88,11.18,18.01,8.26l27.91-11.45c7.13-2.92,10.69-11.43,7.91-18.89l-1.02-2.76c-2.78-7.47-10.88-11.18-18.01-8.26Z"/><path class="cls-12" d="M134.11,102.21l-1.38-3.68s32.1-1.49,53.88-21.95c1.47,4.37,1.38,3.67,1.38,3.67,0,0-20.49,19.15-53.87,21.97Z"/><path class="cls-2" d="M132.47,106.78c-1.32-.6-5.49,3.82-4.64,5.83,1.38,3.31,15.85-.86,15.85-.86,0,0-7.91,2.44-10.16-.8-1.14-1.63-.2-3.79-1.05-4.17Z"/><path class="cls-3" d="M134.77,84.86c.81-2.91,6.17-4.93,6.84-5.19,1.63-.62,3.68-1.05,3.68-.45,0,.66-2.48,1.56-5.17,4.85-1.83,2.24-2.15,3.62-3.14,3.98-1.35.49-2.73-1.36-2.22-3.19Z"/><path class="cls-5" d="M200.05,136.5c1.71-.41,3.07-1.02,4.8-1.28s3.85.79,3.95,2.76c.11,2.06-2.25,4.71-3.81,5.73-2.47,1.61-11.94,3.31-19.83,1.97-1.75-.3-5.07-.72-6.76-1.32-2.32-.83-3.6-1.49-5.58-3.08s-3.36-4.63-2.38-7.16c1.18-3.06,4.71-3.57,7.59-4.25,7.14-1.68,13.18-6.85,19.29-11.37,4.32-3.2,9.19-6.24,14.32-5.72,1.77.18,3.59.86,4.72,2.41,1.51,2.08,1.38,5.17.56,7.71-1.11,3.43-3.34,6.38-6.17,8.13-3.47,2.16-7.28,3.78-10.71,5.49h0Z"/><path d="M200.15,136.86c2.15-.54,4.98-2.11,7.1-.77,2.37,1.49.6,4.34-.77,5.83-2.37,2.58-6.04,3.09-9.36,3.51-4.55.57-8.98.33-13.49-.37-4.06-.64-8.39-1.6-11.31-4.78-1.62-1.77-2.47-4.53-1.18-6.72,1.01-1.72,3.03-2.38,4.85-2.84,2.07-.52,4.11-.97,6.09-1.79,2.11-.88,4.1-2.01,6.01-3.25,4.01-2.59,7.64-5.72,11.59-8.4,3.85-2.62,9.04-5.43,13.81-3.73,6.17,2.19,3.4,10.54.39,14.22-1.74,2.12-4.05,3.46-6.45,4.72s-5.04,2.45-7.55,3.69c-.43.21-.05.86.38.65,2.71-1.34,5.48-2.58,8.15-4.01,2.31-1.25,4.46-2.59,6.12-4.67,2.67-3.33,5-9.24,2.18-13.16-2.91-4.04-9.09-2.76-12.89-.99-5.25,2.45-9.6,6.56-14.32,9.84-2.42,1.68-4.94,3.24-7.66,4.38-2.32.97-4.75,1.34-7.13,2.08-1.82.57-3.59,1.51-4.44,3.31-.91,1.92-.49,4.19.59,5.95,2.42,3.92,7.46,5.39,11.71,6.08,5.04.82,9.95,1.16,15.04.48,4.37-.59,8.66-1.53,10.92-5.73.94-1.74.95-3.81-.88-4.95-2.37-1.49-5.28.09-7.67.7-.47.12-.27.84.2.72Z"/><path class="cls-1" d="M179.97,137.39c-.11-.39-.05-.53.01-.59.09-.08.23-.02.57.01,0,0,.05,0,.57.01.26,0,.75-.04,2.27-.55.61-.2.73-.26,1.27-.43.62-.19.84-.21,2.14-.69.7-.25,1.68-.62,2.85-1.13,2.31-1,5.66-2.46,9.15-5.15,1.25-.96,2.37-1.99,4.61-4.06,1.21-1.12,2.2-2.06,2.87-2.72.47-.4,1.46-1.11,2.87-1.31.67-.09,1.26-.04,1.7.03h.57c.11.07.39.25.55.62.25.57.01,1.11-.02,1.19-.36.57-.75,1.16-1.17,1.75-.59.84-1.17,1.62-1.74,2.34-4.25,3.59-8.08,5.44-10.89,6.48-3.35,1.24-8.67,2.57-8.59,3.3,0,.03.02.06.04.08.55.6,3.37,1.25,3.93,1.27,0,0,5.62.21,7.47,1.29.09.05.33.19.42.47.1.29,0,.57-.01.59-.31.78-1.92.92-1.92.92h0c-1.11.33-2.59.65-4.33.73-1.65.07-3.06-.1-4.16-.31-2.87-.8-5.74-1.61-8.6-2.41-.81-.58-1.61-1.16-2.42-1.74Z"/><path d="M209.15,127.1c1.04-1.34,5.87-6.16,1.68-6.72-4.03-.54-6.4,2.92-9.04,5.28-5.96,5.32-13.16,9.25-21.07,10.68-.47.09-.27.81.2.72,6.2-1.11,12.02-3.76,17.12-7.44,2.78-2,5.18-4.33,7.64-6.69,1.23-1.19,3.33-2.23,5.1-1.8,2.01.49.43,2.11-.27,3.01-.63.81-1.26,1.62-1.89,2.43-.29.38.23.91.53.53h0Z"/><path d="M201.28,139.81c-1.22,1.41-3.5,1.54-5.25,1.6-1.95.07-3.9-.11-5.82-.46-3.63-.66-7.31-1.85-10.34-4.01-.39-.28-.77.37-.38.65,3.32,2.37,7.47,3.64,11.48,4.25,1.95.29,3.94.44,5.92.28,1.73-.14,3.73-.39,4.92-1.77.31-.36-.21-.9-.53-.53h0Z"/><path class="cls-5" d="M179.39,134.82c.71.62,1.11,1.66,1.03,2.67-.08,1.01-.64,1.96-1.44,2.43"/><path d="M179.12,135.09c1.32,1.18,1.22,3.56-.33,4.51-.41.25-.04.9.38.65,1.95-1.19,2.18-4.17.49-5.68-.36-.32-.89.21-.53.53h0Z"/><path class="cls-7" d="M213.59,114.96c-.87-.19-2.3-.44-4.06-.32-7.69.5-12.8,7.24-12.41,7.64.41.41,7.01-5.98,11.93-5.09,2.13.39,3.15.18,5.19-.23.43-.09,1.05-.23,1.13-.56.15-.58-1.51-1.31-1.79-1.44Z"/><path class="cls-10" d="M191.49,154.11c-1.53.79-3.31,1.09-5.01.82-.2-.03-.4.05-.46.26-.05.18.06.43.26.46,1.92.3,3.86,0,5.59-.89.43-.22.05-.87-.38-.65h0Z"/></svg>