<?xml version="1.0" encoding="UTF-8"?><svg id="Layer_1" xmlns="http://www.w3.org/2000/svg" width="250" height="280" viewBox="0 0 250 280"><defs><style>.cls-1{fill:#e04a10;}.cls-2{fill:#5c5958;}.cls-3{fill:#adacab;}.cls-4{fill:#ffffeb;}.cls-5{fill:#ff6124;}.cls-6{fill:#ffea93;}.cls-7{fill:#ff8454;}.cls-8,.cls-9{fill:#fff;}.cls-10{fill:#754c24;}.cls-9{stroke:#fff;}.cls-9,.cls-11{stroke-miterlimit:10;}.cls-11{stroke:#000;}.cls-12{fill:#bf2900;}</style></defs><path class="cls-6" d="M117.87,275.42c-36.81,0-69.26-11.69-86.81-31.26-11.37-12.68-16.17-28-14.26-45.53,1.03-6.2,1.69-12.78,2.4-19.75,1.65-16.34,3.35-33.23,10.11-46.7,4.9-9.76,8.92-13.93,13.44-13.93,3.82,0,7.98,2.98,13.24,6.76,3.98,2.85,8.49,6.09,14.06,8.97,7.71,3.98,18.95,4.65,27.99,5.2,1.75.11,3.44.21,5.02.33l.88.07-.4-.79c-11.57-22.78-10.98-50.93,1.5-71.72,10.93-18.21,29.24-28.48,51.56-28.92.44,0,.88-.01,1.32-.01,27.3,0,50.35,17.68,58.72,45.03,8.37,27.35-.8,54.85-23.34,70.07l-.77.52.85.36c10.98,4.62,35.61,20.48,27.25,67.96-6.05,16.63-19.7,30.49-39.45,40.01-17.88,8.61-40.36,13.36-63.3,13.36h-.01Z"/><path class="cls-10" d="M157.92,38.63c13.99,0,26.94,4.55,37.47,13.17,9.59,7.85,16.96,19.04,20.78,31.51,8.3,27.13-.78,54.42-23.14,69.5l-1.53,1.03,1.7.72c4.75,2,13.71,6.9,20.3,17.27,8.03,12.64,10.27,29.48,6.66,50.05-6.04,16.55-19.59,30.29-39.19,39.73-17.82,8.58-40.23,13.31-63.1,13.31-36.67,0-68.98-11.62-86.44-31.09-11.27-12.57-16.03-27.75-14.14-45.12,1.04-6.24,1.7-12.82,2.4-19.79,1.64-16.29,3.34-33.13,10.06-46.52,4.74-9.44,8.75-13.66,12.99-13.65,3.66,0,7.76,2.94,12.95,6.67,3.99,2.86,8.52,6.11,14.12,9,7.8,4.02,19.1,4.71,28.19,5.25,1.77.11,3.44.21,5.02.33l1.77.13-.8-1.58c-11.49-22.63-10.91-50.59,1.48-71.24,10.84-18.05,29-28.24,51.15-28.68.44,0,.87-.01,1.31-.01M157.92,37.63c-.44,0-.88,0-1.33.01-54.19,1.07-75.08,58.87-53.5,101.36-9.92-.75-23.76-.79-32.82-5.47-13.11-6.77-20.63-15.78-27.52-15.78-4.44,0-8.62,3.73-13.88,14.21-9.67,19.26-9.07,45.65-12.56,66.62-5.61,51.4,47.54,77.35,101.57,77.35,44.8,0,90.2-17.83,103.26-53.78,8.54-48.49-17.46-64.27-27.54-68.51,49.83-33.63,24.84-116.01-35.66-116.01h0Z"/><path class="cls-10" d="M53.48,194.29c-3.7-1.69-7.71-3.9-8.08-8.42-.17-2.08.29-4.15.73-6.17.49-2.28.93-4.57,1.37-6.85.46-2.37.92-4.75,1.53-7.09.42-1.62,1.14-3.29,2.74-4.06,3.35-1.6,7.64.91,10.42,2.62,3.65,2.25,7.23,4.39,11.21,6.02s8.41,2.91,12.74,4.02c7.07,1.82,15.47,3.7,19.69,10.28,3.28,5.12,3.5,11.61,2.67,17.47-.89,6.26-2.97,12.4-5.73,18.08-3.4,7-10.21,10.64-17.29,13.07-8.52,2.93-17.63,2.78-26.24.26-12.1-3.54-24.23-12.2-25.83-25.6-.21-1.77-.23-3.55-.11-5.32.03-.48-.72-.48-.75,0-.47,7.02,1.66,13.76,6.17,19.17s10.19,8.76,16.37,11.14c7.92,3.05,16.71,4.2,25.08,2.57,4.08-.79,8.13-2.24,11.85-4.09,3.43-1.7,6.64-3.95,9.02-6.99,2.1-2.68,3.43-5.95,4.65-9.1,1.26-3.24,2.29-6.58,2.99-9.99,1.26-6.11,1.63-12.88-.97-18.7-3.09-6.95-10.04-9.81-16.95-11.77-4.64-1.32-9.35-2.33-13.89-3.96s-9.04-3.86-13.25-6.53c-3.02-1.92-6.68-4.22-10.43-3.79-3.56.41-4.58,3.62-5.28,6.65-1.12,4.86-2.16,9.82-2.99,14.74-.68,4.04-.03,7.67,3.34,10.28,1.47,1.14,3.16,1.95,4.84,2.72.44.2.82-.45.38-.65h0Z"/><path class="cls-10" d="M44.7,183.11c-1.51,1.69-3.69,2.66-4.94,4.6-1.1,1.7-1.43,3.83-1.17,5.82.58,4.49,4.13,7.44,7.97,9.33.43.21.81-.43.38-.65-3.61-1.79-7.07-4.53-7.6-8.79-.24-1.92.1-3.97,1.23-5.57,1.23-1.73,3.27-2.65,4.67-4.22.32-.36-.21-.89-.53-.53h0Z"/><path class="cls-10" d="M39.58,194.9c-.4-1.26-1.65-1.82-2.91-1.59-1.6.29-2.57,1.77-3.12,3.18-.73,1.89-1.01,4.02-1.13,6.04-.14,2.23.03,4.47.47,6.67.1.47.82.27.72-.2-.7-3.46-.65-7.06.13-10.51.32-1.39.78-2.93,1.91-3.89.94-.8,2.76-.9,3.2.5.14.46.87.26.72-.2h0Z"/><ellipse class="cls-11" cx="157.85" cy="89.89" rx="11" ry="14"/><ellipse class="cls-9" cx="154.35" cy="83.89" rx="2.5" ry="2" transform="translate(23.26 200.84) rotate(-70.26)"/><ellipse class="cls-11" cx="199.47" cy="80.89" rx="9.62" ry="14" transform="translate(-4.66 12.6) rotate(-3.58)"/><ellipse class="cls-9" cx="196.04" cy="75.09" rx="2.48" ry="1.77" transform="translate(92.2 257.54) rotate(-81.31)"/><path class="cls-10" d="M103.87,139.8c2.71,3.7,6.48,6.5,10.81,8.01.46.16.65-.56.2-.72-4.13-1.44-7.78-4.14-10.36-7.67-.28-.39-.93-.01-.65.38h0Z"/><ellipse class="cls-8" cx="151.04" cy="88.2" rx="1.05" ry="1.06"/><ellipse class="cls-8" cx="192.68" cy="79.25" rx="1.05" ry="1.06"/><path class="cls-4" d="M57.12,130.83c-.21.52-7.24-4.58-8.88-2.83,0,0-1.18,1.26.05,10.27,0,0,0,.03,0,.04-.02.02-.07,0-.11-.03-.74-.88-5.89-7.2-4.69-12.44.18-.76.57-2.48,1.91-2.86.84-.24,1.88.09,7.78,4.51,3.29,2.47,4,3.14,3.93,3.31Z"/><path class="cls-10" d="M44.32,119.38c-2.27,1.78-3.69,4.35-4.06,7.21-.42,3.22.48,6.43,2.01,9.25.23.42.88.05.65-.38-2.76-5.1-2.96-11.69,1.94-15.55.38-.3-.15-.83-.53-.53h0Z"/><path class="cls-4" d="M144.97,46.61c-.83-1.59-24.15,4.69-32.9,21.23-.28.54-4.15,7.96-2.22,9.61,2.09,1.79,9.78-4.13,10.4-4.61,7.68-5.98,7.78-10.72,16.02-18.89,5.68-5.63,9.01-6.73,8.69-7.34Z"/><path class="cls-4" d="M175.11,257.83c.9,1.28,29.83-13.47,38.46-34.84.97-2.41,3.06-7.72.93-9.82-2.15-2.12-8.36-.78-12.39,2.66-6.42,5.48-3.31,12.9-11,24-.9,1.3-1.95,2.57-4.06,5.1-8.11,9.76-12.3,12.4-11.94,12.9Z"/><ellipse cx="141.67" cy="58.83" rx="76.5" ry="16.3" transform="translate(-11.73 58.71) rotate(-22.5)"/><rect x="83.25" y="14.66" width="102.18" height="54.2" rx="24.6" ry="24.6" transform="translate(-5.75 54.6) rotate(-22.5)"/><path class="cls-12" d="M89.73,67.24l-2.57-6.17s56.7-3.61,94.48-38.89c2.76,7.32,2.57,6.15,2.57,6.15,0,0-35.54,33-94.47,38.9Z"/><path class="cls-2" d="M87,75c-2.36-.97-9.56,6.63-8,10,2.57,5.54,28-2,28-2,0,0-13.9,4.38-18-1-2.07-2.71-.49-6.38-2-7Z"/><path class="cls-3" d="M90.27,37.95c1.33-4.94,10.73-8.54,11.91-8.99,2.86-1.1,6.46-1.89,6.49-.88.03,1.11-4.33,2.72-8.96,8.36-3.15,3.84-3.67,6.18-5.41,6.82-2.37.88-4.87-2.2-4.03-5.31Z"/><path class="cls-5" d="M207.57,122.81c3-.75,5.39-1.82,8.44-2.32s6.84,1.2,7.09,4.52c.26,3.47-3.8,8.03-6.53,9.8-4.3,2.8-21,6-35,4-3.11-.44-9-1.05-12-2-4.14-1.32-6.42-2.38-9.98-5.01s-6.1-7.69-4.46-12c1.98-5.2,8.2-6.19,13.27-7.43,12.56-3.07,23.06-12.01,33.71-19.85,7.53-5.55,16.02-10.85,25.11-10.14,3.13.24,6.38,1.33,8.43,3.9,2.75,3.45,2.63,8.67,1.27,12.98-1.84,5.82-5.68,10.87-10.61,13.93-6.07,3.76-12.73,6.62-18.73,9.62h0Z"/><path d="M207.67,123.17c3.66-.94,8.06-3.39,11.86-1.95,1.8.68,3.22,2.21,3.2,4.21-.02,1.79-1.07,3.52-2.1,4.92-1.74,2.35-3.92,4.26-6.67,5.29s-5.94,1.73-8.97,2.24c-8.03,1.36-16.18,1.52-24.25.44-3.55-.48-7.22-.77-10.68-1.75-3.67-1.05-7.05-2.69-10.11-4.96-3.21-2.38-5.7-6.57-4.78-10.68.83-3.71,4.17-5.64,7.54-6.72s7.11-1.68,10.55-2.95c3.89-1.44,7.58-3.38,11.11-5.57,7.39-4.58,14.01-10.24,21.16-15.16s15.9-9.69,24.59-7.28c9.73,2.69,8.13,14.2,4.17,21.06-2.09,3.61-5.01,6.62-8.57,8.8-3.95,2.42-8.12,4.45-12.3,6.45-2.02.97-4.04,1.93-6.04,2.93-.43.22-.05.86.38.65,4.62-2.3,9.33-4.41,13.89-6.84,4.02-2.15,7.85-4.44,10.79-8.01,2.63-3.19,4.61-7.07,5.42-11.15.74-3.72.55-8-1.9-11.09-2.57-3.23-6.91-4.2-10.84-4.11-4.63.11-9.09,1.67-13.16,3.8-8.6,4.48-15.88,11.17-23.85,16.63-3.88,2.66-7.92,5.13-12.23,7.04-4.02,1.78-8.19,2.6-12.39,3.8-3.22.92-6.62,2.38-8.26,5.5-1.77,3.35-.91,7.33,1.18,10.33,2.19,3.15,5.87,5.35,9.35,6.81,3.64,1.52,7.38,2.22,11.27,2.75,4.15.56,8.29,1.13,12.48,1.21,4.51.08,9.03-.22,13.5-.85,3.54-.5,7.1-1.18,10.48-2.34,2.7-.93,4.83-2.38,6.72-4.53,2.01-2.29,4.41-5.9,2.71-9-1.69-3.08-5.51-3.35-8.54-2.64-2.33.55-4.57,1.42-6.9,2.01-.47.12-.27.84.2.72Z"/><path class="cls-1" d="M172.1,125c-.2-.65-.12-.9,0-1,.16-.14.4-.04,1,0,0,0,.09,0,1,0,.46,0,1.33-.09,4-1,1.07-.36,1.27-.47,2.24-.77,1.09-.34,1.47-.39,3.76-1.23,1.22-.45,2.95-1.11,5-2,4.05-1.76,9.92-4.35,16-9,2.17-1.66,4.12-3.44,8-7,2.1-1.92,3.81-3.56,4.98-4.69.82-.68,2.54-1.93,5.02-2.31,1.19-.18,2.22-.12,3,0h1c.19.1.7.39,1,1,.47.95.06,1.87,0,2-.62.98-1.29,1.98-2,3-1,1.43-2.01,2.77-3,4-7.38,6.2-14.09,9.46-19.02,11.31-5.88,2.2-15.23,4.64-15.08,5.86,0,.05.03.09.08.14,1,1,6,2,7,2,0,0,9.95.15,13.26,1.92.16.08.58.31.76.77.19.48.01.96,0,1-.52,1.33-3.36,1.62-3.36,1.62h0c-1.96.6-4.55,1.19-7.64,1.38-2.91.18-5.41-.06-7.36-.38-5.1-1.26-10.2-2.52-15.3-3.78-1.45-.95-2.89-1.9-4.34-2.84Z"/><path d="M223.11,106.47c.9-1.15,1.81-2.31,2.71-3.46.85-1.08,1.84-2.14,2.52-3.35.83-1.49.86-3.34-1.02-3.94-4.37-1.38-8.96,1.17-11.9,4.18-7.5,7.67-16.29,14.14-26.1,18.54-5.07,2.27-10.39,3.95-15.85,4.99-.47.09-.27.81.2.72,8.59-1.63,16.81-4.89,24.3-9.39,3.97-2.39,7.74-5.12,11.29-8.11,1.87-1.58,3.67-3.22,5.41-4.94s3.3-3.48,5.58-4.51c1.27-.57,2.65-.93,4.04-1.01s4.33-.06,3.81,2.1c-.35,1.44-1.63,2.66-2.51,3.79-1,1.28-2.01,2.56-3.01,3.84-.29.38.23.91.53.53h0Z"/><path d="M210.07,128.53c-2.18,2.59-6.53,2.83-9.69,2.98-3.37.16-6.76-.08-10.09-.59-6.42-.98-13.05-2.85-18.52-6.44-.4-.27-.78.38-.38.65,5.79,3.8,12.87,5.73,19.67,6.66,3.46.47,6.99.68,10.48.41,3.07-.24,6.95-.62,9.06-3.13.31-.37-.22-.9-.53-.53h0Z"/><path class="cls-5" d="M170.97,120.69c1.28,1.01,2.02,2.76,1.92,4.47s-1.07,3.33-2.46,4.14"/><path d="M170.7,120.96c2.52,2.07,2.37,6.3-.47,8.02-.41.25-.04.9.38.65,3.22-1.96,3.53-6.82.62-9.2-.37-.3-.9.22-.53.53h0Z"/><path class="cls-7" d="M230.73,86.01c-1.54-.3-4.09-.66-7.18-.4-13.57,1.1-22.37,12.66-21.67,13.31.73.68,12.19-10.32,20.92-8.99,3.78.58,5.58.19,9.17-.57.76-.16,1.85-.43,1.98-.98.25-.98-2.71-2.16-3.22-2.36Z"/><path class="cls-10" d="M193.22,153.04c-2.82,1.45-6.02,1.99-9.15,1.57-.48-.06-.47.69,0,.75,3.27.43,6.6-.17,9.53-1.68.43-.22.05-.87-.38-.65h0Z"/></svg>