<?xml version="1.0" encoding="UTF-8"?><svg xmlns="http://www.w3.org/2000/svg" width="1920" height="1080" viewBox="0 0 1920 1080"><defs><style>.cls-1,.cls-2,.cls-3,.cls-4,.cls-5,.cls-6{fill:none;}.cls-2{stroke:#c6baaf;}.cls-2,.cls-3,.cls-7,.cls-8,.cls-4,.cls-5,.cls-9,.cls-10,.cls-6,.cls-11,.cls-12,.cls-13,.cls-14,.cls-15{stroke-miterlimit:10;}.cls-16{fill:#003694;}.cls-3,.cls-9{stroke:#ffd7bf;}.cls-17{fill:#603813;}.cls-18,.cls-10,.cls-11{fill:gray;}.cls-19{fill:#d0d0d0;}.cls-7{fill:#eff6f4;stroke:#eff6f4;}.cls-8{fill:#b8f2ff;}.cls-8,.cls-4,.cls-13{stroke:#fff;}.cls-20{fill:#ffd5d0;}.cls-21{fill:#ccc;}.cls-22{fill:#f7ebe2;}.cls-5{stroke:#c69c6d;stroke-width:18px;}.cls-23{fill:#ffe6d4;}.cls-9{fill:#ffd7bf;}.cls-24{fill:#733b00;}.cls-25,.cls-13{fill:#fff;}.cls-26{fill:#a4b3bc;}.cls-10,.cls-12{stroke:gray;}.cls-6{stroke:#e6e6e6;}.cls-27{fill:#c69c6d;}.cls-11{stroke:#e0e0e0;stroke-width:.25px;}.cls-12,.cls-14{fill:#b3b3b3;}.cls-28{fill:#8c6239;}.cls-14{stroke:#b3b3b3;}.cls-29{fill:#94c2cc;}.cls-30{fill:#6ed6a4;}.cls-15{fill:#999;stroke:#999;stroke-width:.5px;}.cls-31{fill:#998675;}</style></defs><rect class="cls-8" x="2.5" y=".5" width="1919" height="791"/><rect class="cls-29" x="-1.5" y="793.5" width="1923" height="288"/><line class="cls-4" x1=".48" y1="638.74" x2="1919.98" y2="638.74"/><line class="cls-4" x1=".48" y1="486.74" x2="1919.98" y2="486.74"/><line class="cls-4" x1=".48" y1="334.74" x2="1919.98" y2="334.74"/><line class="cls-4" x1=".48" y1="182.74" x2="1919.98" y2="182.74"/><line class="cls-4" x1=".48" y1="30.74" x2="1919.98" y2="30.74"/><line class="cls-4" x1="113.5" x2="113.5" y2="791.5"/><line class="cls-4" x1="283.04" y1=".13" x2="283.04" y2="791.63"/><line class="cls-4" x1="452.04" y1=".13" x2="452.04" y2="791.63"/><line class="cls-4" x1="619.77" y1=".06" x2="619.77" y2="791.56"/><line class="cls-4" x1="789.31" y1=".19" x2="789.31" y2="791.69"/><line class="cls-4" x1="958.31" y1=".19" x2="958.31" y2="791.69"/><line class="cls-4" x1="1129.63" y1=".03" x2="1129.63" y2="791.53"/><line class="cls-4" x1="1299.17" y1=".16" x2="1299.17" y2="791.66"/><line class="cls-4" x1="1468.17" y1=".16" x2="1468.17" y2="791.66"/><line class="cls-4" x1="1635.9" y1=".1" x2="1635.9" y2="791.6"/><line class="cls-4" x1="1805.44" y1=".23" x2="1805.44" y2="791.73"/><g id="Hylder"><ellipse class="cls-5" cx="1667.5" cy="486.5" rx="161.5" ry="1.5"/><ellipse class="cls-5" cx="1667.5" cy="617.5" rx="161.5" ry="1.5"/><ellipse class="cls-5" cx="1667.5" cy="355.5" rx="161.5" ry="1.5"/><path class="cls-13" d="M1568.12,353.5h71.95c4.52-117.16-8.83-128.41-14.16-129.79-.87-.22-7.73-.15-21.43,0-17.59.19-18.04-.71-20.28.42-10.58,5.34-12.33,24.6-14.92,53.27-.12,1.29-.2,2.32-.27,3.1-.91,11.12-1.26,21.16-1.29,37.6-.02,9.71.06,21.65.41,35.4Z"/><rect class="cls-13" x="1583.05" y="209.76" width="45.16" height="25.37" rx="11.69" ry="11.69"/><path class="cls-14" d="M1628.21,217.69h-45.16v-17.81c0-1.3.69-2.49,1.77-3.01,8.88-4.25,33.07-4.09,41.54-.09,1.12.53,1.85,1.72,1.85,3.07,0,4.96,0,17.84,0,17.84Z"/><path class="cls-12" d="M1582.67,199.2c9.47,2.42,14.43,2.95,17.22,2.96.08,0,.18,0,6.12,0,5.23,0,5.3,0,5.36,0,2.82,0,7.79-.55,17.22-2.96"/><rect class="cls-10" x="1599.89" y="202.15" width="11.48" height="2.54" rx=".72" ry=".72"/><path class="cls-27" d="M1641.49,310.8h-74.13c.03-13.48.7-27.91,2.3-43.12.45-4.32.97-8.55,1.53-12.68h67.35c.58,4.11,1.09,8.34,1.53,12.68,1.55,15.47,1.87,29.92,1.42,43.12Z"/><rect class="cls-1" x="1568.62" y="277.4" width="72.21" height="20.55"/><path class="cls-25" d="M1575.09,283.43l-1.02-.69c-.64-.43-1.1-.86-1.37-1.28-.27-.42-.41-.9-.41-1.45,0-.82.26-1.48.77-1.99s1.18-.77,2-.77,1.5.24,2.16.73v1.69c-.68-.72-1.41-1.08-2.19-1.08-.44,0-.8.11-1.08.34s-.42.51-.42.86c0,.31.1.6.31.87s.54.56,1,.85l1.03.67c1.15.76,1.72,1.72,1.72,2.89,0,.83-.25,1.51-.76,2.03-.5.52-1.16.78-1.97.78-.93,0-1.77-.32-2.54-.95v-1.89c.73,1.02,1.57,1.53,2.52,1.53.42,0,.77-.13,1.05-.39s.42-.58.42-.97c0-.63-.41-1.23-1.24-1.8Z"/><path class="cls-25" d="M1585.7,277.4h1.35v10.38h-1.35v-4.52h-5.28v4.52h-1.34v-10.38h1.34v4.49h5.28v-4.49Z"/><path class="cls-25" d="M1592.11,277.34h.95l4.21,10.44h-1.38l-1.25-3.08h-4.01l-1.17,3.08h-1.38l4.04-10.44ZM1594.09,283.38l-1.52-3.76-1.41,3.76h2.92Z"/><path class="cls-25" d="M1605.78,277.4h1.26v10.38h-1.35v-8.08l-2.89,4.01h-.25l-2.92-4.01v8.08h-1.35v-10.38h1.27l3.12,4.26,3.1-4.26Z"/><path class="cls-25" d="M1608.99,287.78v-10.4h2.98c.9,0,1.61.27,2.15.8.53.54.8,1.25.8,2.16,0,.6-.14,1.14-.41,1.6-.27.47-.65.8-1.12,1.01-.48.21-1.16.32-2.04.32h-1v4.5h-1.35ZM1611.73,278.71h-1.39v3.25h1.47c.55,0,.97-.14,1.26-.43.3-.28.44-.69.44-1.22,0-1.07-.6-1.6-1.79-1.6Z"/><path class="cls-25" d="M1620.69,277.25c1.45,0,2.66.51,3.63,1.52.97,1.02,1.45,2.29,1.45,3.82s-.49,2.8-1.46,3.8c-.97,1-2.2,1.5-3.69,1.5s-2.6-.5-3.54-1.5c-.94-1-1.42-2.26-1.42-3.77s.47-2.83,1.42-3.85c.95-1.02,2.15-1.52,3.6-1.52ZM1620.75,278.66c-1.08,0-1.96.37-2.65,1.11s-1.04,1.69-1.04,2.85.35,2.05,1.04,2.79,1.56,1.11,2.61,1.11,1.92-.38,2.62-1.14c.7-.76,1.05-1.7,1.05-2.83s-.35-2.02-1.05-2.78-1.56-1.13-2.58-1.13Z"/><path class="cls-25" d="M1632.04,277.25c1.45,0,2.66.51,3.63,1.52.97,1.02,1.45,2.29,1.45,3.82s-.49,2.8-1.46,3.8c-.97,1-2.2,1.5-3.69,1.5s-2.6-.5-3.54-1.5c-.94-1-1.42-2.26-1.42-3.77s.47-2.83,1.42-3.85c.95-1.02,2.15-1.52,3.6-1.52ZM1632.09,278.66c-1.08,0-1.96.37-2.65,1.11s-1.04,1.69-1.04,2.85.35,2.05,1.04,2.79,1.56,1.11,2.61,1.11,1.92-.38,2.62-1.14c.7-.76,1.05-1.7,1.05-2.83s-.35-2.02-1.05-2.78-1.56-1.13-2.58-1.13Z"/><path class="cls-13" d="M1680.35,353.3c29.38.07,58.77.14,88.15.2.28-7.96.66-19.73,1-34,.22-9.58.87-42.24-4-80-1.41-10.92-5.11-21.2-13-31-8.35-10.37-19.02-16.05-20-15-.98,1.05,7.08,9.61,5,12-.06.07-.12.12-.23.2-.77.6-2.94,1.38-12.61.33-5.86-.63-6.48-.65-7.16-1.53-2.3-2.99,2.32-8.76,1-10-1.52-1.42-10.83,3.13-18.56,12.01-13.75,15.8-15.98,37.74-18.19,60.44-.14,1.46-.25,2.63-.32,3.51-1.11,12.61-1.53,24.01-1.58,42.66-.03,11.02.08,24.56.5,40.17Z"/><path class="cls-20" d="M1769.77,304.85h-90.36c.03-15.3.85-31.67,2.8-48.93.55-4.9,1.18-9.7,1.87-14.39,27.31-.18,54.61-.35,81.92-.53.78,4.82,1.46,9.79,2.04,14.92,1.99,17.61,2.34,34.03,1.73,48.93Z"/><rect class="cls-1" x="1680.96" y="267.93" width="88.02" height="22.34"/><path class="cls-25" d="M1692.6,274.21v1.29c-.84.47-1.8.7-2.89.7-.89,0-1.64-.18-2.26-.55s-1.11-.87-1.47-1.52c-.36-.64-.54-1.34-.54-2.09,0-1.19.41-2.19,1.24-3.01s1.85-1.22,3.06-1.22c.84,0,1.76.22,2.79.67v1.26c-.93-.55-1.84-.82-2.73-.82s-1.67.3-2.27.89c-.6.59-.9,1.33-.9,2.22s.3,1.64.89,2.21,1.35.87,2.27.87,1.91-.3,2.83-.91Z"/><path class="cls-25" d="M1697.91,267.81c1.23,0,2.25.4,3.07,1.2.82.8,1.23,1.8,1.23,3.01s-.41,2.21-1.24,3c-.83.79-1.87,1.19-3.12,1.19s-2.2-.4-3-1.19-1.2-1.78-1.2-2.97.4-2.23,1.21-3.04,1.82-1.2,3.05-1.2ZM1697.95,268.92c-.91,0-1.66.29-2.25.88s-.88,1.33-.88,2.24.29,1.62.88,2.2,1.32.88,2.21.88,1.63-.3,2.22-.9c.59-.6.89-1.34.89-2.23s-.3-1.6-.89-2.19c-.59-.59-1.32-.89-2.19-.89Z"/><path class="cls-25" d="M1709.93,267.93h1.08v8.19h-.98l-5.32-6.3v6.3h-1.07v-8.19h.92l5.37,6.36v-6.36Z"/><path class="cls-25" d="M1712.73,276.1v-8.17h2.68c1.08,0,1.94.17,2.57.5.63.33,1.13.83,1.5,1.47.37.65.56,1.36.56,2.12,0,.55-.1,1.07-.31,1.57s-.5.94-.88,1.32c-.39.39-.84.69-1.35.88-.3.12-.58.2-.83.24s-.73.06-1.44.06h-2.52ZM1715.29,268.97h-1.42v6.09h1.46c.57,0,1.01-.04,1.33-.12s.58-.18.79-.3.4-.27.58-.45c.56-.59.84-1.33.84-2.22s-.29-1.6-.87-2.15c-.21-.21-.46-.38-.73-.51s-.54-.22-.78-.26-.64-.06-1.19-.06Z"/><path class="cls-25" d="M1721.48,267.93h1.14v8.19h-1.14v-8.19Z"/><path class="cls-25" d="M1723.71,267.92h6.65v1.04h-2.78v7.15h-1.14v-7.15h-2.73v-1.04Z"/><path class="cls-25" d="M1731.44,267.93h1.14v8.19h-1.14v-8.19Z"/><path class="cls-25" d="M1738.25,267.81c1.23,0,2.25.4,3.07,1.2.82.8,1.23,1.8,1.23,3.01s-.41,2.21-1.24,3c-.83.79-1.87,1.19-3.12,1.19s-2.2-.4-3-1.19-1.2-1.78-1.2-2.97.4-2.23,1.21-3.04,1.82-1.2,3.05-1.2ZM1738.3,268.92c-.91,0-1.66.29-2.25.88s-.88,1.33-.88,2.24.29,1.62.88,2.2,1.32.88,2.21.88,1.63-.3,2.22-.9c.59-.6.89-1.34.89-2.23s-.3-1.6-.89-2.19c-.59-.59-1.32-.89-2.19-.89Z"/><path class="cls-25" d="M1750.28,267.93h1.08v8.19h-.98l-5.32-6.3v6.3h-1.07v-8.19h.92l5.37,6.36v-6.36Z"/><path class="cls-25" d="M1753.06,267.93h4.51v1.04h-3.37v2.5h3.26v1.05h-3.26v2.54h3.48v1.04h-4.62v-8.17Z"/><path class="cls-25" d="M1758.93,276.11v-8.19h1.99c.81,0,1.44.21,1.92.62.47.41.71.96.71,1.66,0,.48-.12.89-.35,1.24s-.56.61-1,.78c.25.17.5.41.75.7s.58.81,1.03,1.55c.28.46.5.81.67,1.05l.42.59h-1.36l-.35-.54s-.03-.05-.07-.1l-.22-.32-.35-.6-.38-.64c-.24-.34-.45-.6-.65-.8-.2-.2-.37-.34-.53-.43-.16-.09-.42-.13-.8-.13h-.3v3.56h-1.14ZM1760.41,268.92h-.34v2.58h.43c.58,0,.97-.05,1.19-.15s.38-.25.5-.46c.12-.21.18-.44.18-.7s-.07-.49-.2-.7-.32-.36-.56-.44-.64-.13-1.2-.13Z"/><rect class="cls-25" x="1710.54" y="182.2" width="30.96" height="35.3" rx="11.69" ry="11.69"/><path class="cls-6" d="M1710.54,196.23s18.46,8.48,30.96,0"/><rect class="cls-26" x="1722" y="164" width="9" height="24" rx="4.13" ry="4.13"/><path class="cls-26" d="M1721,168.5v-3.55c0-2.33,1.91-4.25,4.25-4.25h16.94c7.05-.85,12.52.87,13.61,4.01.21.61.33,1.48,0,2.68h-4.01c-.46-.81-.97-1.16-1.34-1.34-1.32-.63-2.83.08-8.03,2.68-.6.3-1.53.76-2.68,1.34-.89.86-2.21,1.92-4.01,2.68-4.73,2-9.2.48-10.48,0-.29,0-1.79-.03-4.25-4.25Z"/><path class="cls-17" d="M1724.43,557.12h-.43s.05.03.13.07c-.08.02-.13.03-.13.03h.19c2.46,1.26,31.98,15.63,65.81,0h0c-32.93-6.74-61.81-.91-65.57-.1Z"/><path class="cls-16" d="M1729.77,523.54c4.69,18.76,9.38,37.51,14.07,56.27,1.56,6.24,11.21,3.6,9.64-2.66-4.69-18.76-9.38-37.51-14.07-56.27-1.56-6.24-11.21-3.6-9.64,2.66h0Z"/><path class="cls-30" d="M1773.68,527.17c-2.83,13.17-5.67,26.33-8.5,39.5-1.35,6.28,8.29,8.96,9.64,2.66,2.83-13.17,5.67-26.33,8.5-39.5,1.35-6.28-8.29-8.96-9.64-2.66h0Z"/><line class="cls-18" x1="1781.5" y1="528.5" x2="1790" y2="530"/><path class="cls-25" d="M1781.1,529.95c2.48.44,4.95.87,7.43,1.31l1.07.19c.77.14,1.65-.21,1.85-1.05.17-.73-.22-1.7-1.05-1.85-2.48-.44-4.95-.87-7.43-1.31l-1.07-.19c-.77-.14-1.65.21-1.85,1.05-.17.73.22,1.7,1.05,1.85h0Z"/><line class="cls-18" x1="1781.71" y1="530.08" x2="1789.71" y2="532.08"/><path class="cls-25" d="M1781.31,531.53c2.34.58,4.68,1.17,7.01,1.75.33.08.66.16.99.25.76.19,1.66-.24,1.85-1.05s-.23-1.64-1.05-1.85c-2.34-.58-4.68-1.17-7.01-1.75-.33-.08-.66-.16-.99-.25-.76-.19-1.66.24-1.85,1.05s.23,1.64,1.05,1.85h0Z"/><line class="cls-18" x1="1781.5" y1="532.5" x2="1788.71" y2="534.08"/><path class="cls-25" d="M1781.1,533.95c2.1.46,4.21.92,6.31,1.38.3.07.6.13.9.2.76.17,1.66-.23,1.85-1.05.17-.76-.23-1.67-1.05-1.85-2.1-.46-4.21-.92-6.31-1.38-.3-.07-.6-.13-.9-.2-.76-.17-1.66.23-1.85,1.05-.17.76.23,1.67,1.05,1.85h0Z"/><line class="cls-18" x1="1780.71" y1="534.08" x2="1788.71" y2="536.08"/><path class="cls-25" d="M1780.31,535.53c2.34.58,4.68,1.17,7.01,1.75.33.08.66.16.99.25.76.19,1.66-.24,1.85-1.05.18-.78-.23-1.64-1.05-1.85-2.34-.58-4.68-1.17-7.01-1.75-.33-.08-.66-.16-.99-.25-.76-.19-1.66.24-1.85,1.05s.23,1.64,1.05,1.85h0Z"/><line class="cls-18" x1="1780.5" y1="536.5" x2="1787.71" y2="538.08"/><path class="cls-25" d="M1780.1,537.95c2.1.46,4.21.92,6.31,1.38.3.07.6.13.9.2.76.17,1.66-.23,1.85-1.05.17-.76-.23-1.67-1.05-1.85-2.1-.46-4.21-.92-6.31-1.38-.3-.07-.6-.13-.9-.2-.76-.17-1.66.23-1.85,1.05-.17.76.23,1.67,1.05,1.85h0Z"/><line class="cls-18" x1="1780.5" y1="538.5" x2="1787.5" y2="539.5"/><path class="cls-25" d="M1780.1,539.95c2.04.29,4.09.58,6.13.88.29.04.58.08.87.12.42.06.78.07,1.16-.15.31-.18.61-.54.69-.9.16-.71-.22-1.73-1.05-1.85-2.04-.29-4.09-.58-6.13-.88-.29-.04-.58-.08-.87-.12-.42-.06-.78-.07-1.16.15-.31.18-.61.54-.69.9-.16.71.22,1.73,1.05,1.85h0Z"/><line class="cls-11" x1="1780.33" y1="528.5" x2="1791" y2="531"/><line class="cls-11" x1="1780" y1="538" x2="1789" y2="540"/><path class="cls-25" d="M1780.05,528.1c-.58,3.2-1.17,6.41-1.75,9.61-.08.46-.17.93-.25,1.39-.14.8.22,1.62,1.05,1.85.73.2,1.7-.25,1.85-1.05.58-3.2,1.17-6.41,1.75-9.61.08-.46.17-.93.25-1.39.14-.8-.22-1.62-1.05-1.85-.73-.2-1.7.25-1.85,1.05h0Z"/><line class="cls-11" x1="1784.06" y1="531.42" x2="1791" y2="533"/><line class="cls-11" x1="1782" y1="536" x2="1790" y2="537"/><line class="cls-11" x1="1783" y1="537" x2="1789" y2="539"/><line class="cls-11" x1="1782" y1="533" x2="1790.17" y2="533.88"/><line class="cls-11" x1="1783.54" y1="534.88" x2="1790" y2="535"/><path class="cls-28" d="M1790,557.21c-32.7,13.25-66,0-66,0,3.48,20.08,6.97,40.16,10.45,60.24,0,0,30.39,7.23,47.71,0"/><line class="cls-18" x1="1779.53" y1="540.25" x2="1787.5" y2="542.5"/><path class="cls-25" d="M1779.13,541.69c2.32.66,4.65,1.32,6.97,1.97.33.09.66.19,1,.28.75.21,1.67-.26,1.85-1.05s-.24-1.62-1.05-1.85c-2.32-.66-4.65-1.32-6.97-1.97-.33-.09-.66-.19-1-.28-.75-.21-1.67.26-1.85,1.05s.24,1.62,1.05,1.85h0Z"/><line class="cls-18" x1="1779.49" y1="539.86" x2="1787.5" y2="541.5"/><path class="cls-25" d="M1779.1,541.31c2.34.48,4.67.95,7.01,1.43.33.07.67.14,1,.2.77.16,1.66-.22,1.85-1.05.17-.75-.23-1.68-1.05-1.85-2.34-.48-4.67-.95-7.01-1.43-.33-.07-.67-.14-1-.2-.77-.16-1.66.22-1.85,1.05-.17.75.23,1.68,1.05,1.85h0Z"/><line class="cls-11" x1="1782.13" y1="540.33" x2="1789" y2="542"/><line class="cls-18" x1="1731.59" y1="522.33" x2="1723.15" y2="524.16"/><path class="cls-25" d="M1731.19,520.88c-2.46.53-4.92,1.07-7.38,1.6l-1.05.23c-.77.17-1.29,1.1-1.05,1.85.26.81,1.02,1.23,1.85,1.05,2.46-.53,4.92-1.07,7.38-1.6l1.05-.23c.77-.17,1.29-1.1,1.05-1.85-.26-.81-1.02-1.23-1.85-1.05h0Z"/><line class="cls-18" x1="1731.44" y1="523.92" x2="1723.53" y2="526.22"/><path class="cls-25" d="M1731.05,522.47c-2.3.67-4.61,1.34-6.91,2.02l-1,.29c-.75.22-1.3,1.07-1.05,1.85s1.04,1.28,1.85,1.05c2.3-.67,4.61-1.34,6.91-2.02l1-.29c.75-.22,1.3-1.07,1.05-1.85s-1.04-1.28-1.85-1.05h0Z"/><line class="cls-18" x1="1731.74" y1="526.32" x2="1724.6" y2="528.18"/><path class="cls-25" d="M1731.35,524.88c-2.08.54-4.16,1.08-6.25,1.63-.3.08-.6.16-.89.23-.76.2-1.29,1.08-1.05,1.85s1.03,1.26,1.85,1.05c2.08-.54,4.16-1.08,6.25-1.63.3-.08.6-.16.89-.23.76-.2,1.29-1.08,1.05-1.85s-1.03-1.26-1.85-1.05h0Z"/><line class="cls-18" x1="1732.6" y1="527.87" x2="1724.68" y2="530.18"/><path class="cls-25" d="M1732.2,526.43c-2.3.67-4.61,1.34-6.91,2.02l-1,.29c-.75.22-1.3,1.07-1.05,1.85.25.76,1.04,1.28,1.85,1.05,2.3-.67,4.61-1.34,6.91-2.02l1-.29c.75-.22,1.3-1.07,1.05-1.85s-1.04-1.28-1.85-1.05h0Z"/><line class="cls-18" x1="1732.9" y1="530.28" x2="1725.76" y2="532.14"/><path class="cls-25" d="M1732.5,528.84c-2.08.54-4.16,1.08-6.25,1.63-.3.08-.6.16-.89.23-.76.2-1.29,1.08-1.05,1.85s1.03,1.26,1.85,1.05c2.08-.54,4.16-1.08,6.25-1.63.3-.08.6-.16.89-.23.76-.2,1.29-1.08,1.05-1.85s-1.03-1.26-1.85-1.05h0Z"/><line class="cls-18" x1="1732.98" y1="532.28" x2="1726.02" y2="533.55"/><path class="cls-25" d="M1732.58,530.83c-2.03.37-4.05.74-6.08,1.11l-.88.16c-.77.14-1.28,1.12-1.05,1.85.27.83,1.02,1.2,1.85,1.05,2.03-.37,4.05-.74,6.08-1.11l.88-.16c.77-.14,1.28-1.12,1.05-1.85-.27-.83-1.02-1.2-1.85-1.05h0Z"/><line class="cls-11" x1="1732.76" y1="522.28" x2="1722.19" y2="525.19"/><line class="cls-11" x1="1733.46" y1="531.76" x2="1724.54" y2="534.11"/><path class="cls-25" d="M1730.14,522.73c.71,3.18,1.42,6.37,2.12,9.55.1.45.2.91.3,1.36.18.79,1.09,1.25,1.85,1.05.81-.22,1.22-1.05,1.05-1.85-.71-3.18-1.42-6.37-2.12-9.55-.1-.45-.2-.91-.3-1.36-.18-.79-1.09-1.25-1.85-1.05-.81.22-1.22,1.05-1.05,1.85h0Z"/><line class="cls-11" x1="1729.15" y1="525.35" x2="1722.27" y2="527.19"/><line class="cls-11" x1="1731.38" y1="529.84" x2="1723.43" y2="531.15"/><line class="cls-11" x1="1730.42" y1="530.88" x2="1724.5" y2="533.11"/><line class="cls-11" x1="1731.26" y1="526.84" x2="1723.13" y2="528.04"/><line class="cls-11" x1="1729.8" y1="528.79" x2="1723.35" y2="529.15"/><line class="cls-18" x1="1732.33" y1="534.26" x2="1724.78" y2="537.65"/><path class="cls-25" d="M1731.58,532.96c-2.2.99-4.41,1.98-6.61,2.97l-.95.42c-.72.32-.94,1.42-.54,2.05.48.74,1.28.88,2.05.54,2.2-.99,4.41-1.98,6.61-2.97l.95-.42c.72-.32.94-1.42.54-2.05-.48-.74-1.28-.88-2.05-.54h0Z"/><line class="cls-18" x1="1732.31" y1="533.87" x2="1724.63" y2="536.66"/><path class="cls-25" d="M1731.91,532.43c-2.24.81-4.48,1.62-6.71,2.44l-.97.35c-.74.27-1.31,1.03-1.05,1.85.23.72,1.06,1.33,1.85,1.05,2.24-.81,4.48-1.62,6.71-2.44l.97-.35c.74-.27,1.31-1.03,1.05-1.85-.23-.72-1.06-1.33-1.85-1.05h0Z"/><line class="cls-11" x1="1729.78" y1="534.71" x2="1723.22" y2="537.37"/><path class="cls-22" d="M1735.39,483.59c-1.91-6.34-3.81-12.69-5.72-19.03,11.49-5.35,21.51-9.17,29.18-11.84,12.65-4.4,24.03-7.43,32.7-9.73,3.82-1.02,7.03-1.83,9.3-2.4,2.75,4.37,5.68,9.86,8.06,16.41,2.78,7.65,4.02,14.53,4.55,20.03-2.31.26-4.64.51-6.99.75-11.25,1.17-22.91,2.19-34.96,3.02-9.78.67-11.75.61-18.55,1.11-4.06.29-10.12.8-17.57,1.69Z"/><path class="cls-2" d="M1791.35,442.99s12.81,16.99,11.53,34.98"/><line class="cls-2" x1="1802.49" y1="443.47" x2="1793.66" y2="445.92"/><line class="cls-2" x1="1801.32" y1="441.46" x2="1792.3" y2="444.47"/><line class="cls-2" x1="1803.88" y1="445.88" x2="1795.05" y2="448.33"/><line class="cls-2" x1="1804.82" y1="447.48" x2="1795.79" y2="450.49"/><line class="cls-2" x1="1806.82" y1="452.24" x2="1797.68" y2="453.67"/><line class="cls-2" x1="1805.98" y1="450.12" x2="1796.56" y2="452.08"/><line class="cls-2" x1="1807.13" y1="454.49" x2="1798.89" y2="456.45"/><line class="cls-2" x1="1808.5" y1="456.48" x2="1799.08" y2="458.44"/><line class="cls-2" x1="1809.45" y1="459.5" x2="1800.04" y2="460.45"/><line class="cls-2" x1="1810.61" y1="461.51" x2="1801.32" y2="463.42"/><line class="cls-2" x1="1811.77" y1="465.52" x2="1801.37" y2="465.9"/><line class="cls-2" x1="1811.75" y1="468.52" x2="1801.97" y2="468.14"/><line class="cls-2" x1="1812.91" y1="471.52" x2="1802.27" y2="471.26"/><line class="cls-2" x1="1812.9" y1="473.52" x2="1803.42" y2="474.77"/><line class="cls-2" x1="1812.88" y1="476.52" x2="1802.39" y2="476.58"/><path class="cls-31" d="M1721.71,487.37l12.27-2.35c1.05-.2,1.71-1.1,1.47-1.99l-4.81-18.03c-.24-.89-1.29-1.46-2.34-1.26l-12.27,2.35c-1.05.2-1.71,1.1-1.47,1.99l4.81,18.03c.24.89,1.29,1.46,2.34,1.26Z"/><line class="cls-2" x1="1730.29" y1="465.83" x2="1715.35" y2="468.98"/><line class="cls-2" x1="1731.16" y1="467.96" x2="1715.34" y2="470.98"/><line class="cls-2" x1="1732.95" y1="475.08" x2="1717.65" y2="477.99"/><line class="cls-2" x1="1732.94" y1="477.08" x2="1717.83" y2="479.8"/><line class="cls-2" x1="1732" y1="469.88" x2="1716.51" y2="472.98"/><line class="cls-2" x1="1732.07" y1="472.79" x2="1716.58" y2="475.89"/><line class="cls-2" x1="1734.39" y1="478.8" x2="1718.9" y2="481.9"/><line class="cls-2" x1="1733.92" y1="480.96" x2="1718.8" y2="484"/><line class="cls-2" x1="1734.9" y1="483" x2="1719.78" y2="486.04"/><rect class="cls-13" x="1608.5" y="438.5" width="79" height="46" rx="12" ry="12"/><path class="cls-3" d="M1608,455s37.34,13.87,80,0"/><rect class="cls-9" x="1642.96" y="461.21" width="10.54" height="3.29" rx=".72" ry=".72"/><path class="cls-19" d="M1582.17,484.08c-12.01-.1-24.02-.19-36.03-.29-.07-3.8-.17-9.41-.24-16.22-.04-4.57-.14-20.15,2.04-38.13.63-5.2,2.2-10.09,5.47-14.73,3.46-4.91,7.85-7.57,8.25-7.07.4.51-2.94,4.55-2.1,5.7.03.04.05.06.09.1.31.29,1.19.67,5.15.21,2.4-.28,2.65-.28,2.93-.7.95-1.42-.91-4.19-.36-4.77.63-.67,4.41,1.54,7.52,5.81,5.54,7.59,6.34,18.07,7.13,28.9.05.7.09,1.26.11,1.68.39,6.02.5,11.46.43,20.35-.05,5.26-.16,11.71-.41,19.15Z"/><rect class="cls-19" x="1557.96" y="402.29" width="12.65" height="16.83" rx="6.33" ry="6.33" transform="translate(3124.1 838.09) rotate(-179.39)"/><path class="cls-6" d="M1570.63,409.05s-7.59,3.97-12.65-.14"/><path class="cls-26" d="M1564.57,406.11h0c1.48.01,2.71-1.06,2.72-2.4l.08-6.6c.02-1.33-1.18-2.43-2.67-2.45h0c-1.48-.01-2.71,1.06-2.72,2.4l-.08,6.6c-.02,1.33,1.18,2.43,2.67,2.45Z"/><path class="cls-26" d="M1567.98,396.85l.02-1.69c.01-1.11-1.12-2.04-2.52-2.05l-10.15-.1c-4.22-.45-7.51.34-8.18,1.84-.13.29-.21.7-.02,1.28l2.41.02c.28-.38.59-.55.81-.63.8-.29,1.69.06,4.8,1.32.36.15.91.37,1.6.65.53.42,1.31.93,2.39,1.3,2.83.98,5.51.28,6.28.06.17,0,1.07,0,2.57-2Z"/><path class="cls-21" d="M1606.29,605.3v-8.13c0-.97-1.5-.97-1.5,0v8.13c0,.97,1.5.97,1.5,0h0Z"/><ellipse class="cls-15" cx="1605.54" cy="596.76" rx="1.34" ry=".81"/><ellipse class="cls-7" cx="1577.26" cy="595.51" rx="21.38" ry="46.1" transform="translate(815.68 2099.62) rotate(-83.83)"/><rect class="cls-7" x="1604.65" y="595.51" width="85.53" height="14.7" rx="5.5" ry="5.5" transform="translate(74.34 -173.57) rotate(6.17)"/><ellipse class="cls-23" cx="1577.22" cy="595.8" rx="15.25" ry="35.63" transform="translate(815.35 2099.84) rotate(-83.83)"/><path class="cls-21" d="M1552.62,586.15v-8.13c0-.97-1.5-.97-1.5,0v8.13c0,.97,1.5.97,1.5,0h0Z"/><ellipse class="cls-15" cx="1551.87" cy="577.61" rx="1.34" ry=".81"/><path class="cls-21" d="M1558.42,584.94v-8.13c0-.97-1.5-.97-1.5,0v8.13c0,.97,1.5.97,1.5,0h0Z"/><ellipse class="cls-15" cx="1557.67" cy="576.4" rx="1.34" ry=".81"/><path class="cls-21" d="M1565.1,583.6v-8.13c0-.97-1.5-.97-1.5,0v8.13c0,.97,1.5.97,1.5,0h0Z"/><ellipse class="cls-15" cx="1564.35" cy="575.06" rx="1.34" ry=".81"/><path class="cls-21" d="M1571.79,583.6v-8.13c0-.97-1.5-.97-1.5,0v8.13c0,.97,1.5.97,1.5,0h0Z"/><ellipse class="cls-15" cx="1571.04" cy="575.06" rx="1.34" ry=".81"/><path class="cls-21" d="M1549.31,588.7v-8.13c0-.97-1.5-.97-1.5,0v8.13c0,.97,1.5.97,1.5,0h0Z"/><ellipse class="cls-15" cx="1548.56" cy="580.15" rx="1.34" ry=".81"/><path class="cls-21" d="M1555.12,588.82v-8.13c0-.97-1.5-.97-1.5,0v8.13c0,.97,1.5.97,1.5,0h0Z"/><ellipse class="cls-15" cx="1554.37" cy="580.28" rx="1.34" ry=".81"/><path class="cls-21" d="M1561.8,587.49v-8.13c0-.97-1.5-.97-1.5,0v8.13c0,.97,1.5.97,1.5,0h0Z"/><ellipse class="cls-15" cx="1561.05" cy="578.94" rx="1.34" ry=".81"/><path class="cls-21" d="M1568.48,587.49v-8.13c0-.97-1.5-.97-1.5,0v8.13c0,.97,1.5.97,1.5,0h0Z"/><ellipse class="cls-15" cx="1567.73" cy="578.94" rx="1.34" ry=".81"/><path class="cls-21" d="M1545.53,590.76v-8.13c0-.97-1.5-.97-1.5,0v8.13c0,.97,1.5.97,1.5,0h0Z"/><ellipse class="cls-15" cx="1544.78" cy="582.22" rx="1.34" ry=".81"/><path class="cls-21" d="M1546.87,596.11v-8.13c0-.97-1.5-.97-1.5,0v8.13c0,.97,1.5.97,1.5,0h0Z"/><ellipse class="cls-15" cx="1546.12" cy="587.57" rx="1.34" ry=".81"/><path class="cls-21" d="M1549.54,593.44v-8.13c0-.97-1.5-.97-1.5,0v8.13c0,.97,1.5.97,1.5,0h0Z"/><ellipse class="cls-15" cx="1548.79" cy="584.89" rx="1.34" ry=".81"/><path class="cls-21" d="M1554.22,592.77v-8.13c0-.97-1.5-.97-1.5,0v8.13c0,.97,1.5.97,1.5,0h0Z"/><ellipse class="cls-15" cx="1553.47" cy="584.23" rx="1.34" ry=".81"/><path class="cls-21" d="M1559.56,591.43v-8.13c0-.97-1.5-.97-1.5,0v8.13c0,.97,1.5.97,1.5,0h0Z"/><ellipse class="cls-15" cx="1558.81" cy="582.89" rx="1.34" ry=".81"/><path class="cls-21" d="M1565.45,590.28v-8.13c0-.97-1.5-.97-1.5,0v8.13c0,.97,1.5.97,1.5,0h0Z"/><ellipse class="cls-15" cx="1564.7" cy="581.74" rx="1.34" ry=".81"/><path class="cls-21" d="M1572.13,588.94v-8.13c0-.97-1.5-.97-1.5,0v8.13c0,.97,1.5.97,1.5,0h0Z"/><ellipse class="cls-15" cx="1571.38" cy="580.4" rx="1.34" ry=".81"/><path class="cls-21" d="M1562.78,594.29v-8.13c0-.97-1.5-.97-1.5,0v8.13c0,.97,1.5.97,1.5,0h0Z"/><ellipse class="cls-15" cx="1562.03" cy="585.75" rx="1.34" ry=".81"/><path class="cls-21" d="M1569.46,592.95v-8.13c0-.97-1.5-.97-1.5,0v8.13c0,.97,1.5.97,1.5,0h0Z"/><ellipse class="cls-15" cx="1568.71" cy="584.41" rx="1.34" ry=".81"/><path class="cls-21" d="M1560.1,598.3v-8.13c0-.97-1.5-.97-1.5,0v8.13c0,.97,1.5.97,1.5,0h0Z"/><ellipse class="cls-15" cx="1559.35" cy="589.75" rx="1.34" ry=".81"/><path class="cls-21" d="M1566.79,595.62v-8.13c0-.97-1.5-.97-1.5,0v8.13c0,.97,1.5.97,1.5,0h0Z"/><ellipse class="cls-15" cx="1566.04" cy="587.08" rx="1.34" ry=".81"/><path class="cls-21" d="M1557.43,595.62v-8.13c0-.97-1.5-.97-1.5,0v8.13c0,.97,1.5.97,1.5,0h0Z"/><ellipse class="cls-15" cx="1556.68" cy="587.08" rx="1.34" ry=".81"/><path class="cls-21" d="M1564.9,599.17v-8.13c0-.97-1.5-.97-1.5,0v8.13c0,.97,1.5.97,1.5,0h0Z"/><ellipse class="cls-15" cx="1564.15" cy="590.63" rx="1.34" ry=".81"/><path class="cls-21" d="M1570.79,598.01v-8.13c0-.97-1.5-.97-1.5,0v8.13c0,.97,1.5.97,1.5,0h0Z"/><ellipse class="cls-15" cx="1570.04" cy="589.47" rx="1.34" ry=".81"/><path class="cls-21" d="M1568.12,602.02v-8.13c0-.97-1.5-.97-1.5,0v8.13c0,.97,1.5.97,1.5,0h0Z"/><ellipse class="cls-15" cx="1567.37" cy="593.48" rx="1.34" ry=".81"/><path class="cls-21" d="M1566.78,604.69v-8.13c0-.97-1.5-.97-1.5,0v8.13c0,.97,1.5.97,1.5,0h0Z"/><ellipse class="cls-15" cx="1566.03" cy="596.15" rx="1.34" ry=".81"/><path class="cls-21" d="M1562.77,603.36v-8.13c0-.97-1.5-.97-1.5,0v8.13c0,.97,1.5.97,1.5,0h0Z"/><ellipse class="cls-15" cx="1562.02" cy="594.82" rx="1.34" ry=".81"/><path class="cls-21" d="M1550.08,600.63v-8.13c0-.97-1.5-.97-1.5,0v8.13c0,.97,1.5.97,1.5,0h0Z"/><ellipse class="cls-15" cx="1549.33" cy="592.08" rx="1.34" ry=".81"/><path class="cls-21" d="M1554.08,603.3v-8.13c0-.97-1.5-.97-1.5,0v8.13c0,.97,1.5.97,1.5,0h0Z"/><ellipse class="cls-15" cx="1553.33" cy="594.76" rx="1.34" ry=".81"/><path class="cls-21" d="M1575.29,585.93v-8.13c0-.97-1.5-.97-1.5,0v8.13c0,.97,1.5.97,1.5,0h0Z"/><ellipse class="cls-15" cx="1574.54" cy="577.39" rx="1.34" ry=".81"/><path class="cls-21" d="M1584.65,584.59v-8.13c0-.97-1.5-.97-1.5,0v8.13c0,.97,1.5.97,1.5,0h0Z"/><ellipse class="cls-15" cx="1583.9" cy="576.05" rx="1.34" ry=".81"/><path class="cls-21" d="M1590.34,585.92v-8.13c0-.97-1.5-.97-1.5,0v8.13c0,.97,1.5.97,1.5,0h0Z"/><ellipse class="cls-15" cx="1589.59" cy="577.38" rx="1.34" ry=".81"/><path class="cls-21" d="M1573.82,595.22v-8.13c0-.97-1.5-.97-1.5,0v8.13c0,.97,1.5.97,1.5,0h0Z"/><ellipse class="cls-15" cx="1573.07" cy="586.68" rx="1.34" ry=".81"/><path class="cls-21" d="M1573.46,602.02v-8.13c0-.97-1.5-.97-1.5,0v8.13c0,.97,1.5.97,1.5,0h0Z"/><ellipse class="cls-15" cx="1572.71" cy="593.48" rx="1.34" ry=".81"/><path class="cls-21" d="M1580,584.47v-8.13c0-.97-1.5-.97-1.5,0v8.13c0,.97,1.5.97,1.5,0h0Z"/><ellipse class="cls-15" cx="1579.25" cy="575.92" rx="1.34" ry=".81"/><path class="cls-21" d="M1577.33,589.81v-8.13c0-.97-1.5-.97-1.5,0v8.13c0,.97,1.5.97,1.5,0h0Z"/><ellipse class="cls-15" cx="1576.58" cy="581.27" rx="1.34" ry=".81"/><path class="cls-21" d="M1578.81,594v-8.13c0-.97-1.5-.97-1.5,0v8.13c0,.97,1.5.97,1.5,0h0Z"/><ellipse class="cls-15" cx="1578.06" cy="585.46" rx="1.34" ry=".81"/><path class="cls-21" d="M1595.51,587.26v-8.13c0-.97-1.5-.97-1.5,0v8.13c0,.97,1.5.97,1.5,0h0Z"/><ellipse class="cls-15" cx="1594.76" cy="578.72" rx="1.34" ry=".81"/><path class="cls-21" d="M1600.77,588.6v-8.13c0-.97-1.5-.97-1.5,0v8.13c0,.97,1.5.97,1.5,0h0Z"/><ellipse class="cls-15" cx="1600.02" cy="580.06" rx="1.34" ry=".81"/><path class="cls-21" d="M1605.12,591.26v-8.13c0-.97-1.5-.97-1.5,0v8.13c0,.97,1.5.97,1.5,0h0Z"/><ellipse class="cls-15" cx="1604.37" cy="582.72" rx="1.34" ry=".81"/><path class="cls-21" d="M1608.96,595.28v-8.13c0-.97-1.5-.97-1.5,0v8.13c0,.97,1.5.97,1.5,0h0Z"/><ellipse class="cls-15" cx="1608.21" cy="586.74" rx="1.34" ry=".81"/><path class="cls-21" d="M1611.55,599.29v-8.13c0-.97-1.5-.97-1.5,0v8.13c0,.97,1.5.97,1.5,0h0Z"/><ellipse class="cls-15" cx="1610.8" cy="590.75" rx="1.34" ry=".81"/><path class="cls-21" d="M1582.06,587.93v-8.13c0-.97-1.5-.97-1.5,0v8.13c0,.97,1.5.97,1.5,0h0Z"/><ellipse class="cls-15" cx="1581.31" cy="579.39" rx="1.34" ry=".81"/><path class="cls-21" d="M1587.75,589.26v-8.13c0-.97-1.5-.97-1.5,0v8.13c0,.97,1.5.97,1.5,0h0Z"/><ellipse class="cls-15" cx="1587" cy="580.72" rx="1.34" ry=".81"/><path class="cls-21" d="M1592.92,590.6v-8.13c0-.97-1.5-.97-1.5,0v8.13c0,.97,1.5.97,1.5,0h0Z"/><ellipse class="cls-15" cx="1592.17" cy="582.06" rx="1.34" ry=".81"/><path class="cls-21" d="M1598.18,591.94v-8.13c0-.97-1.5-.97-1.5,0v8.13c0,.97,1.5.97,1.5,0h0Z"/><ellipse class="cls-15" cx="1597.43" cy="583.4" rx="1.34" ry=".81"/><path class="cls-21" d="M1602.54,594.6v-8.13c0-.97-1.5-.97-1.5,0v8.13c0,.97,1.5.97,1.5,0h0Z"/><ellipse class="cls-15" cx="1601.79" cy="586.06" rx="1.34" ry=".81"/><path class="cls-21" d="M1606.37,598.62v-8.13c0-.97-1.5-.97-1.5,0v8.13c0,.97,1.5.97,1.5,0h0Z"/><ellipse class="cls-15" cx="1605.62" cy="590.08" rx="1.34" ry=".81"/><path class="cls-21" d="M1608.96,602.63v-8.13c0-.97-1.5-.97-1.5,0v8.13c0,.97,1.5.97,1.5,0h0Z"/><ellipse class="cls-15" cx="1608.21" cy="594.09" rx="1.34" ry=".81"/><path class="cls-21" d="M1576.13,599.35v-8.13c0-.97-1.5-.97-1.5,0v8.13c0,.97,1.5.97,1.5,0h0Z"/><ellipse class="cls-15" cx="1575.38" cy="590.81" rx="1.34" ry=".81"/><path class="cls-21" d="M1582.06,591.94v-8.13c0-.97-1.5-.97-1.5,0v8.13c0,.97,1.5.97,1.5,0h0Z"/><ellipse class="cls-15" cx="1581.31" cy="583.4" rx="1.34" ry=".81"/><path class="cls-21" d="M1585.08,594.61v-8.13c0-.97-1.5-.97-1.5,0v8.13c0,.97,1.5.97,1.5,0h0Z"/><ellipse class="cls-15" cx="1584.33" cy="586.06" rx="1.34" ry=".81"/><path class="cls-21" d="M1590.25,594.61v-8.13c0-.97-1.5-.97-1.5,0v8.13c0,.97,1.5.97,1.5,0h0Z"/><ellipse class="cls-15" cx="1589.5" cy="586.07" rx="1.34" ry=".81"/><path class="cls-21" d="M1595.51,595.95v-8.13c0-.97-1.5-.97-1.5,0v8.13c0,.97,1.5.97,1.5,0h0Z"/><ellipse class="cls-15" cx="1594.76" cy="587.41" rx="1.34" ry=".81"/><path class="cls-21" d="M1599.86,598.61v-8.13c0-.97-1.5-.97-1.5,0v8.13c0,.97,1.5.97,1.5,0h0Z"/><ellipse class="cls-15" cx="1599.11" cy="590.07" rx="1.34" ry=".81"/><path class="cls-21" d="M1603.7,602.63v-8.13c0-.97-1.5-.97-1.5,0v8.13c0,.97,1.5.97,1.5,0h0Z"/><ellipse class="cls-15" cx="1602.95" cy="594.08" rx="1.34" ry=".81"/><path class="cls-21" d="M1582.23,597.95v-8.13c0-.97-1.5-.97-1.5,0v8.13c0,.97,1.5.97,1.5,0h0Z"/><ellipse class="cls-15" cx="1581.48" cy="589.41" rx="1.34" ry=".81"/><path class="cls-21" d="M1587.41,597.96v-8.13c0-.97-1.5-.97-1.5,0v8.13c0,.97,1.5.97,1.5,0h0Z"/><ellipse class="cls-15" cx="1586.66" cy="589.41" rx="1.34" ry=".81"/><path class="cls-21" d="M1591.59,599.29v-8.13c0-.97-1.5-.97-1.5,0v8.13c0,.97,1.5.97,1.5,0h0Z"/><ellipse class="cls-15" cx="1590.84" cy="590.75" rx="1.34" ry=".81"/><path class="cls-21" d="M1596.76,600.63v-8.13c0-.97-1.5-.97-1.5,0v8.13c0,.97,1.5.97,1.5,0h0Z"/><ellipse class="cls-15" cx="1596.01" cy="592.09" rx="1.34" ry=".81"/><path class="cls-21" d="M1585.4,601.29v-8.13c0-.97-1.5-.97-1.5,0v8.13c0,.97,1.5.97,1.5,0h0Z"/><ellipse class="cls-15" cx="1584.65" cy="592.75" rx="1.34" ry=".81"/><path class="cls-21" d="M1580.14,601.29v-8.13c0-.97-1.5-.97-1.5,0v8.13c0,.97,1.5.97,1.5,0h0Z"/><ellipse class="cls-15" cx="1579.39" cy="592.75" rx="1.34" ry=".81"/><path class="cls-21" d="M1577.38,603.97v-8.13c0-.97-1.5-.97-1.5,0v8.13c0,.97,1.5.97,1.5,0h0Z"/><ellipse class="cls-15" cx="1576.63" cy="595.43" rx="1.34" ry=".81"/><path class="cls-21" d="M1582.82,605.3v-8.13c0-.97-1.5-.97-1.5,0v8.13c0,.97,1.5.97,1.5,0h0Z"/><ellipse class="cls-15" cx="1582.07" cy="596.76" rx="1.34" ry=".81"/><path class="cls-21" d="M1572.13,605.3v-8.13c0-.97-1.5-.97-1.5,0v8.13c0,.97,1.5.97,1.5,0h0Z"/><ellipse class="cls-15" cx="1571.38" cy="596.76" rx="1.34" ry=".81"/><path class="cls-21" d="M1597.35,607.81v-8.13c0-.97-1.5-.97-1.5,0v8.13c0,.97,1.5.97,1.5,0h0Z"/><ellipse class="cls-15" cx="1596.6" cy="599.27" rx="1.34" ry=".81"/><path class="cls-24" d="M1603.27,604.13c1.48-1.42,1.75-3.55,1.07-5.44-.76-2.13-2.6-3.52-4.76-4.04-5.73-1.36-10.73,2.77-15.94,4.3-10.16,2.96-21.98-.71-28.54-9.05-6.9-8.78-7.24-22.01-1.05-31.25,3.13-4.67,9.23-9.36,14.88-5.78,2.29,1.45,3.55,4.08,2.7,6.74-.82,2.56-3.2,4.34-5.44,5.61-3.03,1.71-6.44,2.8-9.73,3.92-3.61,1.23-7.27,2.32-10.96,3.27-7.51,1.93-15.16,3.27-22.88,4.01-.48.05-.48.8,0,.75,13.98-1.36,28.14-4.48,41.12-9.93,4.06-1.71,9.49-4.97,8.87-10.13-.6-5.02-6.55-7.15-10.87-5.77-5.18,1.66-8.81,6.73-10.78,11.56-2.11,5.18-2.58,10.99-1.46,16.45,2.23,10.9,11.06,18.99,21.93,20.92,2.85.5,5.76.59,8.62.2,3.23-.43,6.15-1.56,9.09-2.92,3.32-1.53,7.08-3.19,10.79-2.02,3.18,1,5.69,5.33,2.82,8.07-.35.33.18.86.53.53h0Z"/><path class="cls-21" d="M1564.78,607.31v-8.13c0-.97-1.5-.97-1.5,0v8.13c0,.97,1.5.97,1.5,0h0Z"/><ellipse class="cls-15" cx="1564.03" cy="598.77" rx="1.34" ry=".81"/><path class="cls-21" d="M1580.14,607.97v-8.13c0-.97-1.5-.97-1.5,0v8.13c0,.97,1.5.97,1.5,0h0Z"/><ellipse class="cls-15" cx="1579.39" cy="599.43" rx="1.34" ry=".81"/><path class="cls-21" d="M1599.52,604.63v-8.13c0-.97-1.5-.97-1.5,0v8.13c0,.97,1.5.97,1.5,0h0Z"/><ellipse class="cls-15" cx="1598.77" cy="596.09" rx="1.34" ry=".81"/><path class="cls-21" d="M1602.19,607.31v-8.13c0-.97-1.5-.97-1.5,0v8.13c0,.97,1.5.97,1.5,0h0Z"/><ellipse class="cls-15" cx="1601.44" cy="598.77" rx="1.34" ry=".81"/><path class="cls-21" d="M1592.84,603.3v-8.13c0-.97-1.5-.97-1.5,0v8.13c0,.97,1.5.97,1.5,0h0Z"/><ellipse class="cls-15" cx="1592.09" cy="594.76" rx="1.34" ry=".81"/><path class="cls-21" d="M1588.16,605.3v-8.13c0-.97-1.5-.97-1.5,0v8.13c0,.97,1.5.97,1.5,0h0Z"/><ellipse class="cls-15" cx="1587.41" cy="596.76" rx="1.34" ry=".81"/><path class="cls-21" d="M1590.83,609.31v-8.13c0-.97-1.5-.97-1.5,0v8.13c0,.97,1.5.97,1.5,0h0Z"/><ellipse class="cls-15" cx="1590.08" cy="600.77" rx="1.34" ry=".81"/><path class="cls-21" d="M1575.47,608.64v-8.13c0-.97-1.5-.97-1.5,0v8.13c0,.97,1.5.97,1.5,0h0Z"/><ellipse class="cls-15" cx="1574.72" cy="600.1" rx="1.34" ry=".81"/><path class="cls-21" d="M1587.16,608.31v-8.13c0-.97-1.5-.97-1.5,0v8.13c0,.97,1.5.97,1.5,0h0Z"/><ellipse class="cls-15" cx="1586.41" cy="599.77" rx="1.34" ry=".81"/><path class="cls-21" d="M1583.82,610.31v-8.13c0-.97-1.5-.97-1.5,0v8.13c0,.97,1.5.97,1.5,0h0Z"/><ellipse class="cls-15" cx="1583.07" cy="601.77" rx="1.34" ry=".81"/><path class="cls-21" d="M1593.67,606.81v-8.13c0-.97-1.5-.97-1.5,0v8.13c0,.97,1.5.97,1.5,0h0Z"/><ellipse class="cls-15" cx="1592.92" cy="598.27" rx="1.34" ry=".81"/><path class="cls-21" d="M1570.12,608.64v-8.13c0-.97-1.5-.97-1.5,0v8.13c0,.97,1.5.97,1.5,0h0Z"/><ellipse class="cls-15" cx="1569.37" cy="600.1" rx="1.34" ry=".81"/><path class="cls-21" d="M1552.09,596.96v-8.13c0-.97-1.5-.97-1.5,0v8.13c0,.97,1.5.97,1.5,0h0Z"/><ellipse class="cls-15" cx="1551.34" cy="588.42" rx="1.34" ry=".81"/><path class="cls-21" d="M1558.09,603.3v-8.13c0-.97-1.5-.97-1.5,0v8.13c0,.97,1.5.97,1.5,0h0Z"/><ellipse class="cls-15" cx="1557.34" cy="594.76" rx="1.34" ry=".81"/><path class="cls-21" d="M1555.42,599.29v-8.13c0-.97-1.5-.97-1.5,0v8.13c0,.97,1.5.97,1.5,0h0Z"/><ellipse class="cls-15" cx="1554.67" cy="590.75" rx="1.34" ry=".81"/><path class="cls-21" d="M1560.77,605.97v-8.13c0-.97-1.5-.97-1.5,0v8.13c0,.97,1.5.97,1.5,0h0Z"/><ellipse class="cls-15" cx="1560.02" cy="597.43" rx="1.34" ry=".81"/></g></svg>