<?xml version="1.0" encoding="UTF-8"?>
<svg id="Layer_10" xmlns="http://www.w3.org/2000/svg" xmlns:xlink="http://www.w3.org/1999/xlink" version="1.1" viewBox="0 0 150 220">
  <!-- Generator: Adobe Illustrator 29.0.1, SVG Export Plug-In . SVG Version: 2.1.0 Build 192)  -->
  <defs>
    <style>
      .st0 {
        fill: #b3e197;
      }

      .st0, .st1, .st2, .st3, .st4, .st5 {
        stroke-miterlimit: 10;
      }

      .st0, .st6, .st7, .st2, .st3, .st4, .st5 {
        stroke: #000;
      }

      .st1 {
        stroke: #ccc;
      }

      .st1, .st6, .st5 {
        fill: none;
      }

      .st6, .st7 {
        stroke-miterlimit: 10;
        stroke-width: 1px;
      }

      .st2 {
        fill: url(#linear-gradient);
      }

      .st3, .st5 {
        stroke-width: 3px;
      }

      .st4 {
        fill: #e6e6e6;
      }
    </style>
    <linearGradient id="linear-gradient" x1="-137.3" y1="-1062" x2="-137.3" y2="-1102.4" gradientTransform="translate(-17.7 -1047.6) rotate(-11.8) scale(1 -1)" gradientUnits="userSpaceOnUse">
      <stop offset="0" stop-color="#fff"/>
      <stop offset=".2" stop-color="#fff"/>
      <stop offset=".2" stop-color="#fff"/>
      <stop offset=".3" stop-color="#fbfbfb"/>
      <stop offset=".4" stop-color="#f2f2f2"/>
      <stop offset=".5" stop-color="#e1e1e1"/>
      <stop offset=".6" stop-color="#cacaca"/>
      <stop offset=".7" stop-color="#ababab"/>
      <stop offset=".8" stop-color="#868686"/>
      <stop offset=".9" stop-color="#5a5a5a"/>
      <stop offset=".9" stop-color="#282828"/>
      <stop offset="1" stop-color="#000"/>
    </linearGradient>
  </defs>
  <path class="st2" d="M45.4,63.5s-6.4-2.5-7.2-15.1l-1.5-22.5,4.8,13.8-.5-14.7,3.9,12.8-.4-13.6,4.1,13.1-1.3-13.7,4.6,12.7-1.8-13.3,4.6,13.6-2.1-14.1,4.2,12.8-1.5-13.3,3.9,12.2-1.4-12.8,4.4,12.7-1.6-13.3,4.1,12.8-1.4-13.3,3.6,12.6-1-13.2,4,12.2-1-12.8,3.2,12.1-1.2-12.5,3.8,12.2-1.9-12.7,5,12-2.6-12.5,4.9,12.3-2.2-12.9,5,12.3-1.4-13,4.1,13.4-1.1-14,4.2,13.3-.9-14.1,3.8,14-.8-14.7,3.4,14.1-1.1-14.6,6.9,21.7s3.5,11.4-.6,16.4c-4,5-54.3,11.3-54.3,11.3h0Z"/>
  <path class="st4" d="M99.1,42.1c-2.9-14.1-60.8-2-57.9,12.1.5,2.2,1.2,4.2,2.2,6.2,3,5.7,8.4,10,14.8,12.3-.5,11.6.7,25.9,3.9,41,7.4,35.8,22.9,62.8,34.5,60.4,11.6-2.4,14.9-33.4,7.5-69.1-3.2-15.2-7.8-28.9-12.9-39.3,6.5-6.2,9.8-14.8,8-23.5h0Z"/>
  <path class="st5" d="M96.8,174.6c4.8,18.7-1,35-10,38.4-12.7,4.8-33.9-15.6-32-30.5.5-4.1,3.2-10.7,8.6-12.4,3.5-1.1,8.5-.3,9.9,2.7,1.6,3.3-1.9,8-4.1,10.1-6.4,5.9-19.2,6.9-26.2.6-10.1-9-6.4-27.9,2-33.4,6.7-4.4,12.1,2.6,26.2,1.7,18-1.1,33.7-14.2,41.5-27.9,4.4-7.8,6-15.1,6.7-19.7"/>
  <path class="st3" d="M114.3,89.8s-4.2,11.5,4.4,16.1c8.6,4.6,13.4-9.4,13.9-10.2s-18.3-5.9-18.3-5.9h0Z"/>
  <line class="st5" x1="131.1" y1="85.8" x2="127.3" y2="96.5"/>
  <line class="st5" x1="122.1" y1="83.3" x2="118.3" y2="94"/>
  <ellipse class="st6" cx="79.2" cy="91.3" rx="10.2" ry="17.4" transform="translate(-17 18.1) rotate(-11.8)"/>
  <ellipse class="st7" cx="80.8" cy="98.4" rx="7.8" ry="8.7" transform="translate(-18.4 18.6) rotate(-11.8)"/>
  <path class="st1" d="M73.2,83.2s3.2-4.3,8.1-1.7"/>
  <path class="st1" d="M73.9,86.4s3.2-4.3,8.1-1.7"/>
  <path class="st1" d="M74.7,89.8s3.2-4.3,8.1-1.7"/>
  <circle class="st0" cx="83.8" cy="112.8" r="1.4"/>
</svg>