<?xml version="1.0" encoding="UTF-8"?>
<svg id="Layer_10" xmlns="http://www.w3.org/2000/svg" version="1.1" viewBox="0 0 200 250">
  <!-- Generator: Adobe Illustrator 29.0.1, SVG Export Plug-In . SVG Version: 2.1.0 Build 192)  -->
  <defs>
    <style>
      .st0, .st1, .st2, .st3 {
        fill: none;
      }

      .st4, .st5 {
        fill: #fff;
      }

      .st4, .st5, .st1, .st2, .st6, .st7, .st8, .st3 {
        stroke: #000;
      }

      .st4, .st1, .st2, .st6, .st7, .st8, .st3 {
        stroke-miterlimit: 10;
      }

      .st5 {
        stroke-miterlimit: 10;
        stroke-width: .5px;
      }

      .st1 {
        stroke-width: .5px;
      }

      .st6, .st3 {
        stroke-width: 3px;
      }

      .st7 {
        fill: #e6e6e6;
      }

      .st8 {
        fill: #333;
      }
    </style>
  </defs>
  <path class="st7" d="M99.3,86.4c-11.9,5.7-8.2,24-24.9,61.9-3.6,8.2-7.8,16.1-7.8,16.1-1.9,3.6-3.6,6.4-4.5,8.1,1.6,2,3.6,4.2,6.3,6.4,3.9,3.2,8.5,5.6,13.7,7.4,1.2-1.9,3-4.8,5.4-8.1.3-.4.7-1,1.2-1.7,3.7-5,8.5-11.2,9.4-12.3,26.3-33.3,44.3-40.1,43.6-53.6-.8-15.8-27.6-31.2-42.3-24.2h0Z"/>
  <path class="st2" d="M66.4,164.4s8.3,12.4,20.7,14"/>
  <path class="st3" d="M112,193.1c3.1,8.9,1.5,18.3-4.3,24.2-5.3,5.4-15.2,8.9-21.5,4.7-3.9-2.6-6.8-8.6-4.9-12.7,1.1-2.4,4.2-5.1,7-4.1,2.3.8,3.8,3.8,3,6-1,2.8-5.4,3.1-6.3,3.2-6.7.5-14-5.2-17.1-12.1-4.7-10.5,2-20.8,2.6-21.7"/>
  <path class="st6" d="M102.3,187.4s2.7,8.2,9.4,6.9c6.7-1.2,3.3-11,3.2-11.7s-12.6,4.8-12.6,4.8h0Z"/>
  <line class="st3" x1="109.8" y1="177.9" x2="112.4" y2="185.4"/>
  <line class="st3" x1="103.7" y1="180.4" x2="106.3" y2="187.9"/>
  <path class="st4" d="M87.6,109.6c1.7.7,9.2,2.3,8.3,7.4-2.2,12.2-6.2,22.8-8.5,25.4-3.6,4-8.7.6-10.6.4,3.4-8.9,7.5-20,10.9-33.1h0Z"/>
  <path class="st2" d="M85.1,118.9c3.2,1.1,6.4,2.3,9.6,3.5"/>
  <path class="st2" d="M81.2,131c3.3,1.1,6.7,2.3,10,3.4"/>
  <path class="st7" d="M144.8,119.6c2.3-.3,19.1-2.6,27.1-21.1,8.2-18.7-.8-37.8-14.6-48.4-22.5-17.3-33.9-15.1-59.4-18.5-18.6-2.5-37.5-13.8-52.2-23,0,0-.1,0-.2,0-1,5.4-11.8,25.8-18.3,29.2,0,0,0,0,0,0,24.6,15.1,37.1,29.9,46.6,39.6,13.5,13.8,19.2,24.6,33.8,34.2,13.4,8.8,26.1,9,37.2,7.9Z"/>
  <line class="st0" x1="22.5" y1="32" x2="23.9" y2="36.2"/>
  <path class="st8" d="M27.2,38c-.7-.5,2.9-7,3.5-8.1,2.9-5.3,7.6-12.8,15.1-21.2,0,0,0,0,0,0-.8,3.9-1.9,6.9-2.9,9.1-1.4,3-2.8,5.3-3.8,6.7-1.3,2.1-2.5,3.5-4.1,5.5-1.7,2.2-3,3.7-4.6,5.2-1.7,1.7-2.9,2.9-3.3,2.7Z"/>
  <path class="st2" d="M36.3,44.2s15.5-13.1,19.6-29.3"/>
  <path class="st2" d="M39.4,46.4s15.9-13.5,19.9-29.7"/>
  <ellipse class="st5" cx="143.6" cy="88.2" rx="22.7" ry="20.5" transform="translate(-9.8 158) rotate(-56)"/>
  <line class="st1" x1="123" y1="85.2" x2="149.9" y2="66.5"/>
  <line class="st1" x1="122.5" y1="92.4" x2="155.6" y2="68.8"/>
  <line class="st1" x1="123.9" y1="98.3" x2="159.9" y2="72.6"/>
  <line class="st1" x1="127" y1="103.7" x2="163.1" y2="78"/>
  <line class="st1" x1="131.4" y1="107.3" x2="164.6" y2="83.7"/>
  <line class="st1" x1="137.2" y1="109.8" x2="164.3" y2="90.5"/>
  <line class="st1" x1="146.6" y1="109.7" x2="160.5" y2="99.6"/>
  <line class="st1" x1="126.7" y1="76.8" x2="140.6" y2="66.7"/>
  <line class="st1" x1="163.4" y1="93.8" x2="143.6" y2="66.2"/>
  <line class="st1" x1="164.9" y1="86.2" x2="150.9" y2="66.9"/>
  <line class="st1" x1="160.4" y1="99.7" x2="137.5" y2="67.6"/>
  <line class="st1" x1="157" y1="103.8" x2="133.1" y2="70.2"/>
  <line class="st1" x1="152.7" y1="107" x2="129" y2="73.8"/>
  <line class="st1" x1="148" y1="109.2" x2="125.6" y2="78.1"/>
  <line class="st1" x1="142.4" y1="110.1" x2="123.6" y2="82.7"/>
  <line class="st1" x1="134.9" y1="109" x2="122.4" y2="89.8"/>
</svg>