<?xml version="1.0" encoding="UTF-8"?><svg id="Layer_1" xmlns="http://www.w3.org/2000/svg" width="200" height="200" viewBox="0 0 200 200"><defs><style>.cls-1{fill:#009;}.cls-2{fill:#1700a2;}</style></defs><path class="cls-1" d="M97.33,193.83c-17.84-18.38-60.52-64.37-80.31-102.8-3.76-7.3-8.64-18.64-7.66-32.76.4-5.68,3.01-25.03,19.93-35.59,6.26-3.91,13.36-5.89,21.1-5.89,13.54,0,24.51,6.1,24.97,6.35,17.32,9.76,22.48,27.24,23.65,32.37l.48,2.13.49-2.13c.96-4.19,6.86-25.6,28.27-35.2,3.79-1.7,11.53-4.55,20.88-4.55,7.21,0,13.91,1.72,19.92,5.11,13.77,7.77,22.13,23.38,21.84,40.73-.16,9.36-2.78,18.32-8.02,27.39-21.05,36.45-66.55,85.18-85.55,104.84Z"/><path class="cls-2" d="M149.13,16.26c7.12,0,13.74,1.7,19.67,5.05,6.91,3.9,12.57,9.92,16.37,17.39,3.55,6.98,5.35,14.9,5.22,22.89-.16,9.27-2.76,18.16-7.95,27.15-9.66,16.73-25.65,38.03-47.54,63.31-14.6,16.86-28.37,31.51-37.58,41.05-18.03-18.61-60.23-64.2-79.87-102.31-3.73-7.25-8.58-18.5-7.6-32.5.39-5.62,2.97-24.76,19.7-35.21,6.18-3.86,13.19-5.82,20.84-5.82,13.41,0,24.27,6.03,24.73,6.29,17.15,9.66,22.25,26.97,23.41,32.04l.97,4.26.98-4.26c.96-4.15,6.8-25.35,27.98-34.86,3.75-1.68,11.42-4.5,20.68-4.5M149.13,15.26c-10.32,0-18.62,3.49-21.08,4.59-22.26,9.99-27.91,32.78-28.55,35.55-.74-3.26-5.4-22.28-23.89-32.69-.95-.54-11.8-6.42-25.22-6.42-6.78,0-14.22,1.5-21.37,5.97C10.94,33.55,9.1,54.84,8.86,58.24c-.99,14.11,3.77,25.38,7.71,33.02,21.36,41.47,69.05,91.24,80.76,103.29,10.5-10.86,63.06-65.61,85.98-105.31,2.86-4.96,7.87-14.72,8.08-27.63.27-15.87-7.1-32.71-22.09-41.17-6.89-3.89-13.9-5.18-20.17-5.18h0Z"/></svg>