<?xml version="1.0" encoding="UTF-8"?>
<svg id="Layer_1" xmlns="http://www.w3.org/2000/svg" version="1.1" viewBox="0 0 400 200">
  <!-- Generator: Adobe Illustrator 29.0.1, SVG Export Plug-In . SVG Version: 2.1.0 Build 192)  -->
  <defs>
    <style>
      .st0 {
        fill: #0000c0;
      }

      .st1 {
        isolation: isolate;
      }

      .st2 {
        fill: #fff;
      }
    </style>
  </defs>
  <path class="st2" d="M350.4,71.9c-18.2-12-43.6-11.2-61,.8,1.3-4.4,2-9,1.8-13.8-.9-28.4-29.1-50.5-63.2-49.5-25.8.8-47.4,14.6-56.1,33.6-8.8-14.1-26.8-23.5-47.2-22.9-28.5.9-51,20.8-50.3,44.5,0,3.4.7,6.8,1.7,10-3.8-.8-7.7-1.2-11.8-1.1-22.8.7-40.8,16.6-40.3,35.6.5,16.7,15.1,30.1,34.1,32.7-1.2,2.9-1.9,6.1-1.8,9.4.4,14.2,14.6,25.4,31.7,24.9,10.4-.3,19.5-4.9,24.9-11.7,3,4.6,7.1,8.9,12.4,12.3,20.8,13.8,51.2,10.7,68-6.8,2.7-2.8,4.9-5.9,6.6-9,3.1,3.7,6.8,7,11.2,10,24.9,16.4,61.3,12.8,81.3-8.1,6.1-6.4,10-13.7,11.7-21.2,18.8,5.2,40.4.4,53.5-13.3,16.7-17.5,13.4-42.8-7.4-56.6h0,0Z"/>
  <g class="st1">
    <g class="st1">
      <path class="st0" d="M78.8,114h-9.7c.8-5.9.8-11.1,0-15.5h9.7c-.8,4.4-.8,9.6,0,15.5Z"/>
      <path class="st0" d="M80.7,98.5h5.2c3,0,5.7,2.3,6,5.9,0,1.1.2,2.7,1.3,2.7,1.8,0-.4-6-.9-8.6h8.6c-.8,4.4-.8,9.6,0,15.5h-9.9c-.2-3.6,0-8-1.3-8s-1.1,4.5,0,8h-9.4c1.1-4.4,1.3-11.2.6-15.5h0Z"/>
      <path class="st0" d="M102.5,102.2c0-2.9,2.4-4.2,5.9-4.2s9.1.3,11.4,0l-.2,6.8c-2.2-1.5-4.8-2.1-6.2-2.1s-1.9.2-1.9.7c0,1.8,8.5-.3,8.5,5.7s-2,5.6-6.4,5.6-7.8-.4-11.4,0l.2-8.5c2,1.2,4.8,1.9,6.4,1.9s2.1-.2,2.1-.8c0-1.7-8.4.5-8.4-4.8h0Z"/>
      <path class="st0" d="M136.1,103.4c-1,0-1.6.4-1.6,1.4,0,2.2,1.2,5.1,1.5,9.2h-10.7c.3-4.3,1.5-7,1.5-9.2s-.5-1.4-1.5-1.4-2.5.3-3.6.8l-.3-5.6h18.5l-.3,5.6c-1-.4-2.5-.8-3.6-.8h0Z"/>
      <path class="st0" d="M141.8,105.7c0-2.6-.2-5-.6-7.2h12.2c4.3,0,7,1.7,7,4.7s-2.1,4.1-5.2,4.1-.9,0-1.2,0-.4.2-.4.4c0,.8,1.2,1.1,2.1,1.1,1.8,0,3.7-.8,4.7-1.6h.1c.3.8.5,1.7.5,2.6,0,2.7-2.1,4.8-5,4.8s-4.3-1-4.9-4.6c-.1-.7-.4-1-.8-1s-.5.3-.5.7c0,.9.2,2.6.5,4.4h-9.2c.4-3,.6-5.8.6-8.3h0ZM151,106.4c.8,0,1.3-.8,1.3-1.7s-.4-2.2-1.2-2.2-1.3,1-1.3,2.2.4,1.7,1.2,1.7h0Z"/>
      <path class="st0" d="M161.8,98.5h10.1c-.4,2.2-.5,4.3-.5,5.2,0,1.5.5,2.3,1.2,2.3s1.3-.8,1.3-2.3-.2-3-.5-5.2h8.6c-.8,3.6-.4,7.1-.4,9.2,0,4.7-3.7,6.8-9.9,6.8s-9.4-1.8-9.4-6.5.3-5.9-.4-9.6h0Z"/>
      <path class="st0" d="M193.2,98.5h9c0,5.4-2.6,7.1-5.6,7.8-.7.2-1.1.4-1.1.8s.4.7,1.3.7c2.4,0,5.5-1.1,6.7-2.6h.1c.3.9.5,2.1.5,3.1,0,4.4-2.2,7.3-5.3,7.3s-4.8-2.2-5.6-5.4c-.2-.6-.3-1.2-.9-1.2s-.6.5-.6.9c0,.7.2,2.3.5,4.1h-9.2c.4-3,.6-5.8.6-8.3s-.2-5-.6-7.2h9.2c-.4,2.2-.6,4.2-.6,5.6s.3,1.6.9,1.6,1.1-.6,1.1-1.6c0-1.5-.1-3.4-.4-5.6h0Z"/>
      <path class="st0" d="M219.8,103.4c-1,0-1.6.4-1.6,1.4,0,2.2,1.2,5.1,1.5,9.2h-10.7c.3-4.3,1.5-7,1.5-9.2s-.5-1.4-1.5-1.4-2.5.3-3.6.8l-.3-5.6h18.5l-.3,5.6c-1-.4-2.5-.8-3.6-.8h0Z"/>
      <path class="st0" d="M234.5,114h-9.7c.8-5.9.8-11.1,0-15.5h9.7c-.8,4.4-.8,9.6,0,15.5Z"/>
      <path class="st0" d="M235.9,106.1c0-4.7,3.4-8.1,9.5-8.1s9.5,3.4,9.5,8.1-3.4,8.4-9.5,8.4-9.5-3.5-9.5-8.4ZM245.5,105.9c.8,0,1.5-.8,1.5-2.2s-.7-2.7-1.5-2.7-1.5,1.1-1.5,2.7.7,2.2,1.5,2.2Z"/>
      <path class="st0" d="M257,98.5h5.2c3,0,5.7,2.3,6,5.9,0,1.1.2,2.7,1.3,2.7,1.8,0-.4-6-.9-8.6h8.6c-.8,4.4-.8,9.6,0,15.5h-10c-.2-3.6,0-8-1.3-8s-1.1,4.5-.1,8h-9.4c1.1-4.4,1.3-11.2.6-15.5h0Z"/>
      <path class="st0" d="M278.5,98.5h17.9l-.4,4.6c-1.8-.6-4.7-.9-6.8-.9s-2.1.3-2.1,1,.4.8,1.1.8c1,0,4.3-.5,6.5-.5v3.6c-2.5,0-5.6-.4-6.7-.4s-.9.3-.9.8.5,1,2.4,1,4.8-.3,6.9-.8l.6,6.3h-18.5c.8-5.9.8-11.1,0-15.5h0Z"/>
      <path class="st0" d="M299,105.7c0-2.6-.2-5-.6-7.2h12.2c4.3,0,7,1.7,7,4.7s-2.1,4.1-5.2,4.1-.9,0-1.2,0-.4.2-.4.4c0,.8,1.2,1.1,2.1,1.1,1.8,0,3.7-.8,4.7-1.6h.1c.3.8.5,1.7.5,2.6,0,2.7-2.1,4.8-5,4.8s-4.3-1-4.9-4.6c-.1-.7-.4-1-.8-1s-.5.3-.5.7c0,.9.2,2.6.5,4.4h-9.2c.4-3,.6-5.8.6-8.3h0ZM308.2,106.4c.8,0,1.3-.8,1.3-1.7s-.4-2.2-1.2-2.2-1.3,1-1.3,2.2.4,1.7,1.2,1.7h0Z"/>
    </g>
  </g>
  <circle class="st2" cx="167.5" cy="26.6" r="4"/>
  <circle class="st2" cx="178.9" cy="17.7" r="6.1"/>
  <circle class="st2" cx="42.7" cy="142.2" r="2.2"/>
  <circle class="st2" cx="50" cy="146.6" r="3.6"/>
  <circle class="st2" cx="43.3" cy="148" r="1.2"/>
  <circle class="st2" cx="300.6" cy="161.9" r="2.7"/>
  <circle class="st2" cx="296.1" cy="170.5" r="4.4"/>
</svg>