<?xml version="1.0" encoding="UTF-8"?><svg id="Layer_1" xmlns="http://www.w3.org/2000/svg" width="1920" height="1080" viewBox="0 0 1920 1080"><defs><style>.cls-1{fill:#fff;}</style></defs><path class="cls-1" d="M508.94,3.68c-15.07-11.65-35.29-16.88-55-15.72-.94-9.58-6.13-18.97-15.62-26.3-19.98-15.44-51.74-16.21-72.91-2.34-46.84-45.54-128.29-75.68-220.93-75.68C-.77-116.35-118.5-42.28-118.5,49.08c0,57.73,47.01,108.54,118.26,138.13-5.11,4.87-8.18,11.08-8.18,17.84,0,15.66,16.43,28.36,36.69,28.36,8.41,0,16.16-2.19,22.35-5.87,10.38,13.86,29.76,23.18,51.96,23.18,12.04,0,23.24-2.75,32.64-7.47,6.75,5.77,16.52,9.4,27.38,9.4,14.74,0,27.46-6.68,33.37-16.33,5.57,4.19,13.17,6.78,21.56,6.78,11.88,0,22.2-5.19,27.37-12.79,18.28,12.14,45.85,11.53,63.17-1.86,4.85-3.75,8.39-8.12,10.65-12.78,26.43,9.36,58.72,5.63,80.49-11.19,18.82-14.54,24.95-35.16,18.45-53.68,14.76.62,29.78-3.42,41.05-12.13,15.12-11.69,19.38-28.59,12.77-43.22,13.72-1.86,26.86-6.87,37.46-15.06,27.41-21.19,27.41-55.53,0-76.72Z"/></svg>