<?xml version="1.0" encoding="UTF-8"?>
<svg id="Layer_1" xmlns="http://www.w3.org/2000/svg" version="1.1" viewBox="0 0 400 200">
  <!-- Generator: Adobe Illustrator 29.0.1, SVG Export Plug-In . SVG Version: 2.1.0 Build 192)  -->
  <defs>
    <style>
      .st0 {
        fill: #0000c0;
      }

      .st1 {
        isolation: isolate;
      }

      .st2 {
        fill: #fff;
      }
    </style>
  </defs>
  <path class="st2" d="M350.4,72.6c-18-11.9-43.4-11.2-60.6.8,1.3-4.4,2-9,1.8-13.7-.9-28.2-29-50.2-62.8-49.2-25.6.8-47.2,14.5-55.8,33.4-8.7-14-26.6-23.3-46.9-22.7-28.3.9-50.7,20.7-50,44.3,0,3.4.7,6.8,1.7,9.9-3.7-.8-7.7-1.2-11.7-1.1-22.7.7-40.6,16.5-40,35.4.5,16.5,15,29.9,33.8,32.5-1.2,2.9-1.9,6-1.8,9.3.4,14.2,14.5,25.2,31.5,24.7,10.4-.3,19.4-4.9,24.8-11.6,3,4.6,7.1,8.8,12.3,12.2,20.7,13.7,50.9,10.7,67.6-6.7,2.7-2.8,4.9-5.8,6.5-9,3.1,3.6,6.8,7,11.2,9.9,24.7,16.4,60.9,12.8,80.8-8.1,6.1-6.4,9.9-13.6,11.6-21,18.6,5.2,40.1.4,53.2-13.2,16.6-17.4,13.4-42.6-7.3-56.2h0Z"/>
  <g class="st1">
    <g class="st1">
      <path class="st0" d="M88.3,95.3h15.1c6.9,0,9.8,2.8,9.8,8s-2.8,6.9-6.9,6.9-4.6-1.7-4.6-4.2.5-2.5.5-3.7-.4-1.9-1.3-1.9-1.3.7-1.3,2.1c0,3.9.2,9,.8,13.2h-12.1c1-7.8,1-14.6,0-20.4h0Z"/>
      <path class="st0" d="M115.9,104.7c0-3.4-.3-6.5-.8-9.4h16.1c5.6,0,9.2,2.3,9.2,6.2s-2.8,5.4-6.8,5.4-1.1,0-1.6,0-.5.2-.5.5c0,1.1,1.6,1.4,2.8,1.4,2.4,0,4.9-1.1,6.2-2.1h.1c.4,1.1.6,2.3.6,3.4,0,3.5-2.7,6.3-6.5,6.3s-5.6-1.4-6.5-6c-.2-.9-.5-1.3-1-1.3s-.7.3-.7.8c0,1.2.2,3.4.7,5.8h-12.1c.5-3.9.8-7.6.8-11h0ZM128,105.7c1.1,0,1.7-1,1.7-2.3s-.6-2.9-1.6-2.9-1.7,1.3-1.7,2.9.5,2.3,1.6,2.3Z"/>
      <path class="st0" d="M150.4,115.8c-1.1-.2-2.2.1-3,1.1l-1.1,1.2c-1.4-1.5-2.6-2.5-4.4-3.5l1.2-1.5c.6-.8.9-1.7.5-2.6-.6-1.6-1-3.2-1-5.1,0-6.2,4.5-10.7,12.6-10.7s3.3.3,4.7.6c1.2.3,2.2,0,3-1.1l1.1-1.3c1.4,1.5,2.6,2.5,4.5,3.5l-1.3,1.5c-.6.7-.9,1.5-.6,2.2.6,1.6,1.2,3.2,1.2,5.1,0,6.4-4.5,11.1-12.6,11.1s-3.4-.3-4.9-.7h0ZM155.3,105.1c1.1,0,2-1.1,2-2.9s-.9-3.5-2-3.5-2,1.4-2,3.5.9,2.9,2,2.9Z"/>
      <path class="st0" d="M192.3,115.7h-16.5c-.7-5.8-5.1-12.6-6.1-20.4h14.9c-.4,3.2-.6,5.3-.6,7s.5,2.2,1.5,2.2,1.5-.9,1.5-2.2-.2-3.8-.6-7h12.1c-1,7.9-6.1,14.7-6.1,20.4h0Z"/>
      <path class="st0" d="M219.6,115.7h-12.8c1-7.8,1-14.6,0-20.4h12.8c-1,5.8-1,12.6,0,20.4Z"/>
      <path class="st0" d="M221.4,106.1c0-8.6,4.4-11.5,10.6-11.5s7.8.8,13.6,0v6.7c-2.9-1-5.3-1.4-7.6-1.4-4.1,0-5.1,1.5-5.1,4.2s.4,3.4,1.5,3.4,1.7-1.6,1.1-4.9l10.1-.2c-.6,4.1-.6,9.8,0,13.8-5.8-.7-10.6,0-13.6,0-6.2,0-10.6-3.8-10.6-10.3h0Z"/>
      <path class="st0" d="M247.4,95.3h23.6l-.5,6.1c-2.4-.8-6.2-1.2-8.9-1.2s-2.8.4-2.8,1.3.5,1.1,1.4,1.1c1.4,0,5.7-.6,8.6-.6v4.7c-3.3,0-7.4-.5-8.8-.5s-1.2.4-1.2,1.1.6,1.3,3.1,1.3,6.3-.4,9-1.1l.8,8.3h-24.3c1-7.8,1-14.6,0-20.4h0Z"/>
      <path class="st0" d="M274.5,95.3h6.9c4,0,7.5,3,7.9,7.8.1,1.4.3,3.6,1.7,3.6,2.4,0-.5-7.9-1.2-11.3h11.3c-1,5.8-1,12.6,0,20.4h-13.1c-.3-4.8.1-10.6-1.7-10.6s-1.4,5.9-.1,10.6h-12.4c1.5-5.8,1.7-14.7.8-20.4h0Z"/>
    </g>
  </g>
  <circle class="st2" cx="169.9" cy="29.2" r="4.1"/>
  <circle class="st2" cx="178.6" cy="24.5" r="2.5"/>
  <circle class="st2" cx="171.8" cy="20.1" r="1.9"/>
  <circle class="st2" cx="312.3" cy="152.2" r="4.1"/>
  <circle class="st2" cx="324.9" cy="151.6" r="5.4"/>
  <circle class="st2" cx="114.6" cy="174.7" r="3.5"/>
</svg>