<?xml version="1.0" encoding="UTF-8"?>
<svg id="Layer_1" xmlns="http://www.w3.org/2000/svg" version="1.1" viewBox="0 0 400 300">
  <!-- Generator: Adobe Illustrator 29.0.1, SVG Export Plug-In . SVG Version: 2.1.0 Build 192)  -->
  <defs>
    <style>
      .st0 {
        fill: #0000c0;
      }

      .st1 {
        isolation: isolate;
      }

      .st2 {
        fill: #fff;
      }
    </style>
  </defs>
  <path class="st2" d="M352.7,135.3c3.2-5.6,5-12.2,5-19.1,0-21.4-17.3-38.7-38.7-38.7s-19.7,4.1-26.6,10.7c-7.5-29.1-33.9-50.7-65.4-50.7s-44.7,12.3-56.7,30.9c-8.8-8-20.5-12.9-33.3-12.9-25.9,0-47.1,19.9-49.3,45.2-1.6-.1-3.1-.2-4.7-.2-32.3,0-58.5,26.2-58.5,58.5s26.2,58.5,58.5,58.5,11.3-.8,16.6-2.4c8.6,27.5,34.2,47.4,64.4,47.4s49-15,60.1-36.9c9.1,11.5,23.1,18.9,38.9,18.9s32.9-9.1,41.7-22.8c6.5,3.1,13.7,4.8,21.3,4.8,27.3,0,49.5-22.2,49.5-49.5s-9.1-32.9-22.8-41.7h0Z"/>
  <g class="st1">
    <g class="st1">
      <path class="st0" d="M117.3,142.6c0-7.8,6.5-11.3,15.9-11.3s24.7.8,30.9,0l-.4,18.3c-6-4-13-5.7-16.7-5.7s-5.1.4-5.1,1.8c0,4.8,23.1-.7,23.1,15.3s-5.3,15.1-17.4,15.1-21.2-1.1-30.8-.3l.4-23c5.5,3.2,13,5.1,17.2,5.1s5.7-.6,5.7-2.3c0-4.7-22.8,1.4-22.8-12.9h0Z"/>
      <path class="st0" d="M168.6,132.6h31.1c14.2,0,20.2,5.8,20.2,16.5s-5.7,14.1-14.1,14.1-9.4-3.5-9.4-8.7,1-5.1,1-7.6-.8-3.9-2.6-3.9-2.7,1.4-2.7,4.3c0,8,.4,18.5,1.5,27.2h-24.9c2.1-16.1,2.1-30.1,0-42h0Z"/>
      <path class="st0" d="M250.1,174.6h-26.2c2.1-16.1,2.1-30.1,0-42h26.2c-2.1,11.9-2.1,25.9,0,42Z"/>
      <path class="st0" d="M253.5,132.6h26.7c.2,8.3-3.4,16.6-3.4,22.1s1.3,3.5,4.3,3.5c4.9,0,11.6-1.8,17.2-4.1l.8,20.5h-45.8c2.1-16.1,2.1-30.1,0-42h0Z"/>
    </g>
  </g>
  <circle class="st2" cx="73.8" cy="85.3" r="8.8"/>
  <circle class="st2" cx="87" cy="70.8" r="4.4"/>
  <circle class="st2" cx="308.6" cy="233.3" r="5.5"/>
  <circle class="st2" cx="298.4" cy="239.9" r="3.6"/>
  <circle class="st2" cx="306.4" cy="242.4" r="2"/>
</svg>