<?xml version="1.0" encoding="UTF-8"?>
<svg id="Layer_10" xmlns="http://www.w3.org/2000/svg" version="1.1" viewBox="0 0 150 250">
  <!-- Generator: Adobe Illustrator 29.0.1, SVG Export Plug-In . SVG Version: 2.1.0 Build 192)  -->
  <defs>
    <style>
      .st0, .st1, .st2 {
        fill: none;
      }

      .st3, .st4 {
        fill: #fff;
      }

      .st4, .st1, .st5, .st6 {
        stroke: #000;
      }

      .st4, .st5 {
        stroke-miterlimit: 10;
        stroke-width: 1px;
      }

      .st1, .st2, .st6 {
        stroke-miterlimit: 10;
      }

      .st2 {
        stroke: #e0e0e0;
      }

      .st5 {
        fill: #4d4d4d;
      }

      .st6 {
        fill: #e6e6e6;
      }
    </style>
  </defs>
  <path class="st6" d="M71.6,86l-19.3-60.1c-1.2-3.6-5.1-5.6-8.7-4.5-3.6,1.2-5.6,5.1-4.5,8.7l19.3,60.1c-5.3,4.6-7.6,12-5.4,19.1l30.9,96.1c3,9.4,13.1,14.6,22.5,11.6h0c9.4-3,14.6-13.1,11.6-22.5l-30.9-96.2c-2.3-7-8.5-11.7-15.5-12.3h0Z"/>
  <line class="st0" x1="46.2" y1="26.1" x2="57.9" y2="21.8"/>
  <path class="st3" d="M47,29c3.4-1.3,6.8-2.6,10.2-3.8.5-.2,1-.4,1.5-.5.8-.3,1.4-.7,1.8-1.4.4-.6.5-1.6.3-2.3-.5-1.4-2.1-2.7-3.7-2.1-3.4,1.3-6.8,2.5-10.2,3.8-.5.2-1,.4-1.5.5-.8.3-1.4.7-1.8,1.4-.4.6-.5,1.6-.3,2.3.5,1.4,2.1,2.7,3.7,2.1h0Z"/>
  <line class="st0" x1="47.7" y1="28" x2="59.1" y2="24.6"/>
  <path class="st3" d="M48.4,30.9c3.3-1,6.7-2,10-2.9.5-.1,1-.3,1.4-.4,1.5-.4,2.6-2.1,2.1-3.7s-2.1-2.6-3.7-2.1c-3.3,1-6.7,2-10,3-.5.1-1,.3-1.4.4-1.5.4-2.6,2.1-2.1,3.7s2.1,2.6,3.7,2.1h0Z"/>
  <line class="st0" x1="49.2" y1="31.1" x2="59.3" y2="27.8"/>
  <path class="st3" d="M50,34c3-1,5.9-1.9,8.9-2.9.4-.1.9-.3,1.3-.4,1.5-.5,2.6-2.1,2.1-3.7-.5-1.5-2.1-2.6-3.7-2.1-3,1-5.9,1.9-8.9,2.9-.4.1-.9.3-1.3.4-1.5.5-2.6,2.1-2.1,3.7.5,1.5,2.1,2.6,3.7,2.1h0Z"/>
  <line class="st0" x1="49.3" y1="33.7" x2="60.8" y2="30.3"/>
  <path class="st3" d="M50.1,36.6c3.3-1,6.7-2,10-2.9.5-.1,1-.3,1.4-.4,1.5-.4,2.6-2.1,2.1-3.7s-2.1-2.6-3.7-2.1c-3.3,1-6.7,2-10,2.9-.5.1-1,.3-1.4.4-1.5.4-2.6,2.1-2.1,3.7s2.1,2.6,3.7,2.1h0Z"/>
  <line class="st0" x1="50.9" y1="36.9" x2="61" y2="33.5"/>
  <path class="st3" d="M51.7,39.8c3-1,5.9-1.9,8.9-2.9.4-.1.9-.3,1.3-.4,1.5-.5,2.6-2.1,2.1-3.7-.5-1.5-2.1-2.6-3.7-2.1-3,1-5.9,1.9-8.9,2.9-.4.1-.9.3-1.3.4-1.5.5-2.6,2.1-2.1,3.7.5,1.5,2.1,2.6,3.7,2.1h0Z"/>
  <line class="st0" x1="52.3" y1="39.4" x2="61.8" y2="35.5"/>
  <path class="st3" d="M53.1,42.2c2.8-1.1,5.5-2.3,8.3-3.4.4-.2.8-.3,1.2-.5.8-.3,1.4-.7,1.8-1.4.4-.6.5-1.6.3-2.3s-.7-1.4-1.4-1.8-1.6-.6-2.3-.3c-2.8,1.1-5.5,2.3-8.3,3.4-.4.2-.8.3-1.2.5-.8.3-1.4.7-1.8,1.4-.4.6-.5,1.6-.3,2.3s.7,1.4,1.4,1.8,1.6.6,2.3.3h0Z"/>
  <line class="st2" x1="44.8" y1="27" x2="58.8" y2="22.7"/>
  <line class="st2" x1="51.2" y1="39.2" x2="62.9" y2="35.3"/>
  <path class="st3" d="M43.3,26.9c1.6,4.4,3.2,8.9,4.9,13.3.2.6.5,1.3.7,1.9.5,1.5,2.1,2.6,3.7,2.1,1.4-.5,2.7-2.1,2.1-3.7-1.6-4.4-3.2-8.9-4.9-13.3-.2-.6-.5-1.3-.7-1.9-.5-1.5-2.1-2.6-3.7-2.1-1.4.5-2.7,2.1-2.1,3.7h0Z"/>
  <line class="st2" x1="51.1" y1="28.1" x2="60.2" y2="25.2"/>
  <line class="st2" x1="52" y1="35.2" x2="61.9" y2="30.9"/>
  <line class="st2" x1="53.9" y1="35.8" x2="62.2" y2="34.1"/>
  <line class="st2" x1="49.9" y1="31.5" x2="59.9" y2="26.8"/>
  <line class="st2" x1="53" y1="32.8" x2="60.5" y2="28.4"/>
  <line class="st0" x1="52.2" y1="42.4" x2="63.8" y2="39.1"/>
  <path class="st3" d="M53,45.3c3.4-.9,6.7-1.9,10.1-2.8.5-.1,1-.3,1.4-.4,1.5-.4,2.6-2.1,2.1-3.7-.5-1.5-2.1-2.6-3.7-2.1-3.4.9-6.7,1.9-10.1,2.8-.5.1-1,.3-1.4.4-1.5.4-2.6,2.1-2.1,3.7s2.1,2.6,3.7,2.1h0Z"/>
  <line class="st0" x1="51.9" y1="41.9" x2="63" y2="37.9"/>
  <path class="st3" d="M52.7,44.8c3.2-1.2,6.5-2.3,9.7-3.5.5-.2.9-.3,1.4-.5,1.5-.5,2.6-2.1,2.1-3.7-.5-1.4-2.1-2.7-3.7-2.1-3.2,1.2-6.5,2.3-9.7,3.5-.5.2-.9.3-1.4.5-1.5.5-2.6,2.1-2.1,3.7.5,1.4,2.1,2.7,3.7,2.1h0Z"/>
  <line class="st2" x1="55.1" y1="40.7" x2="64.1" y2="37.8"/>
  <path class="st1" d="M58.3,90c-.7,0,8.5,4.9,13.4-3.7"/>
  <ellipse class="st5" cx="92.1" cy="146.4" rx="7.4" ry="35.2" transform="translate(-40.4 35.2) rotate(-17.8)"/>
  <ellipse class="st4" cx="92.9" cy="146.5" rx="4.6" ry="26.8" transform="translate(-40.4 35.4) rotate(-17.8)"/>
  <path class="st1" d="M86.2,138.9s2.2-.3,4.2-1.1c1.6-.6,3.7-2.1,3.7-2.1"/>
  <path class="st1" d="M91.3,155.4s2.2-.3,4.2-1.1c1.6-.6,3.7-2.1,3.7-2.1"/>
</svg>