<?xml version="1.0" encoding="UTF-8"?><svg id="Layer_1" xmlns="http://www.w3.org/2000/svg" width="300" height="200" viewBox="0 0 300 200"><defs><style>.cls-1{fill:#fff;}.cls-2{fill:#e6e6e6;stroke:#000;stroke-miterlimit:10;}</style></defs><circle class="cls-1" cx="70.39" cy="68.82" r="12.54"/><circle class="cls-1" cx="180.79" cy="74.19" r="9.87"/><circle class="cls-1" cx="211.98" cy="69.32" r="14.8"/><circle class="cls-1" cx="186.05" cy="62.5" r="7.3"/><path class="cls-2" d="M242.06,154.28c2.59,1.53,8.65,1.45,10.1-3.07,1.91-5.95-3.52-14.57-8.33-13.31-3.91,1.02-5.8,14-1.77,16.38Z"/><path class="cls-2" d="M65.7,153.31c-2.59,1.53-8.65,1.45-10.1-3.07-1.91-5.95,3.52-14.57,8.33-13.31,3.91,1.02,5.8,14,1.77,16.38Z"/><path class="cls-2" d="M276.59,68.4c-36.54,4.14-77.84,6.81-123.09,6.43-47.91-.4-91.39-4.14-129.53-9.36-.25,20.84,3.55,50.74,24.56,71.05,19.53,18.88,50.03,19.47,110.23,19.88,50.95.35,76.78.21,93.86-15.2,24.91-22.49,24.68-59.53,23.98-72.8"/><circle class="cls-1" cx="35.3" cy="64.24" r="6.65"/><circle class="cls-1" cx="57.88" cy="65.92" r="5.41"/><circle class="cls-1" cx="47.21" cy="63" r="7.89"/><circle class="cls-1" cx="88.58" cy="66.42" r="11.26"/><circle class="cls-1" cx="103.27" cy="68.83" r="5.93"/><circle class="cls-1" cx="109.74" cy="61.04" r="5.93"/><circle class="cls-1" cx="122.88" cy="64.82" r="8.54"/><circle class="cls-1" cx="112.37" cy="71.57" r="8.54"/><circle class="cls-1" cx="133.42" cy="71.57" r="8.54"/><circle class="cls-1" cx="146.45" cy="67.61" r="9.87"/><circle class="cls-1" cx="162.37" cy="71.57" r="9.87"/><circle class="cls-1" cx="157.6" cy="60.25" r="5.4"/><circle class="cls-1" cx="151.21" cy="56.41" r="3.89"/><circle class="cls-1" cx="195.17" cy="68.88" r="7.3"/><circle class="cls-1" cx="232.18" cy="66.56" r="9.49"/><circle class="cls-1" cx="243.31" cy="59.04" r="6.52"/><circle class="cls-1" cx="224.94" cy="59" r="3.89"/><circle class="cls-1" cx="251.66" cy="62.28" r="7.18"/><circle class="cls-1" cx="260.14" cy="60.64" r="5.53"/><circle class="cls-1" cx="269.7" cy="61.58" r="4.1"/><path class="cls-2" d="M278.63,66.65c-.41-3.7-1.17-4.97-3.8-5.26-11.73-1.3-102.65,26.56-248.81.15-1.11-.2-2.23.27-2.87,1.2-1.19,1.73-2.31,4.57,1.25,6.4,5.37,2.76,134.76,25.82,250.05.57,1.74-.38,4.47-.43,4.18-3.06"/><circle class="cls-1" cx="165.34" cy="52.22" r="2.96"/><circle class="cls-1" cx="160.35" cy="44.64" r="2.11"/><circle class="cls-1" cx="56.38" cy="56.51" r="1.36"/><circle class="cls-1" cx="253.74" cy="51.83" r="1.36"/><circle class="cls-1" cx="247.09" cy="47.08" r="2.45"/><circle class="cls-1" cx="253.88" cy="45.84" r="1.36"/><circle class="cls-1" cx="171.43" cy="63.67" r="7.3"/><circle class="cls-1" cx="176.75" cy="57.19" r="4.72"/><path class="cls-2" d="M246.7,155.94c2.59,1.53,8.65,1.45,10.1-3.07,1.91-5.95-3.52-14.57-8.33-13.31-3.91,1.02-5.8,14-1.77,16.38h0Z"/><path class="cls-2" d="M60.8,155.78c-2.59,1.53-8.65,1.45-10.1-3.07-1.91-5.95,3.52-14.57,8.33-13.31,3.91,1.02,5.8,14,1.77,16.38Z"/></svg>