<?xml version="1.0" encoding="UTF-8"?>
<svg id="Layer_1" xmlns="http://www.w3.org/2000/svg" version="1.1" viewBox="0 0 300 200">
  <!-- Generator: Adobe Illustrator 29.0.1, SVG Export Plug-In . SVG Version: 2.1.0 Build 192)  -->
  <defs>
    <style>
      .st0 {
        fill: #fff;
      }

      .st1 {
        fill: #3ed6ff;
      }

      .st2 {
        fill: #e6e6e6;
        stroke: #000;
        stroke-miterlimit: 10;
      }
    </style>
  </defs>
  <circle class="st0" cx="73.2" cy="79.3" r="11.7"/>
  <circle class="st0" cx="175.8" cy="84.3" r="9.2"/>
  <circle class="st0" cx="204.8" cy="79.8" r="13.8"/>
  <circle class="st0" cx="180.7" cy="73.5" r="6.8"/>
  <path class="st2" d="M232.7,158.7c2.4,1.4,8,1.4,9.4-2.9,1.8-5.5-3.3-13.5-7.7-12.4-3.6.9-5.4,13-1.6,15.2Z"/>
  <path class="st2" d="M68.9,157.9c-2.4,1.4-8,1.4-9.4-2.9-1.8-5.5,3.3-13.5,7.7-12.4,3.6.9,5.4,13,1.6,15.2Z"/>
  <path class="st2" d="M30.1,76.2c-.2,19.4,3.3,47.1,22.8,66,18.1,17.5,46.5,18.1,102.4,18.5,47.3.3,71.3.2,87.2-14.1,23.2-20.9,22.9-55.3,22.3-67.6-33.9,3.8-72.3,6.3-114.4,6-44.5-.4-84.9-3.8-120.3-8.7h0Z"/>
  <circle class="st0" cx="40.6" cy="75.1" r="6.2"/>
  <circle class="st0" cx="61.6" cy="76.7" r="5"/>
  <circle class="st0" cx="51.7" cy="73.9" r="7.3"/>
  <circle class="st0" cx="90.1" cy="77.1" r="10.5"/>
  <circle class="st0" cx="103.8" cy="79.4" r="5.5"/>
  <circle class="st0" cx="109.8" cy="72.1" r="5.5"/>
  <circle class="st0" cx="122" cy="75.6" r="7.9"/>
  <circle class="st0" cx="112.2" cy="81.9" r="7.9"/>
  <circle class="st0" cx="131.8" cy="81.9" r="7.9"/>
  <circle class="st0" cx="143.9" cy="78.2" r="9.2"/>
  <circle class="st0" cx="158.7" cy="81.9" r="9.2"/>
  <circle class="st0" cx="154.2" cy="71.4" r="5"/>
  <circle class="st0" cx="148.3" cy="67.8" r="3.6"/>
  <circle class="st0" cx="189.1" cy="79.4" r="6.8"/>
  <circle class="st0" cx="223.5" cy="77.2" r="8.8"/>
  <circle class="st0" cx="233.9" cy="70.3" r="6.1"/>
  <circle class="st0" cx="216.8" cy="70.2" r="3.6"/>
  <circle class="st0" cx="241.6" cy="73.3" r="6.7"/>
  <circle class="st0" cx="249.5" cy="71.8" r="5.1"/>
  <circle class="st0" cx="258.4" cy="72.6" r="3.8"/>
  <path class="st2" d="M32,72.6c-1-.2-2.1.2-2.7,1.1-1.1,1.6-2.1,4.2,1.2,5.9,5,2.6,125.2,24,232.3.5,1.6-.3,4.2-.4,3.9-2.8-.4-3.4-1.1-4.6-3.5-4.9-10.9-1.2-95.4,24.7-231.2.1Z"/>
  <circle class="st0" cx="161.4" cy="63.9" r="2.8"/>
  <circle class="st0" cx="156.8" cy="56.9" r="2"/>
  <circle class="st0" cx="60.2" cy="67.9" r="1.3"/>
  <circle class="st0" cx="243.6" cy="63.6" r="1.3"/>
  <circle class="st0" cx="237.4" cy="59.2" r="2.3"/>
  <circle class="st0" cx="243.7" cy="58" r="1.3"/>
  <circle class="st0" cx="167.1" cy="74.6" r="6.8"/>
  <circle class="st0" cx="172" cy="68.5" r="4.4"/>
  <path class="st1" d="M31.9,91.4c.9,6.8,2.1,12.4,3.2,16.6,1.7,6.4,3.3,10.1,4,11.8.7,1.5,1.4,3.1,2.3,4.7,3.5,6.6,7.3,11.1,9.7,13.8,3.5,4.1,5.6,6.5,9.2,9,2.5,1.7,5.7,3.4,13.4,5.6,11,3.2,19.4,4.1,19.4,4.1,21.8,2.5,58.2,2.5,59.8,2.5,15.8,0,62,.6,76.6-6.7,6.7-3.3,12.3-8,12.3-8,1.5-1.2,4.4-3.7,7.2-7.1,3-3.7,5.8-8.4,8.5-16.3,4.8-14,5.9-28.3,6.3-35.6-30.9,6.5-70.2,12-115.7,12-45.8,0-85.3-5.6-116.4-12.2l.2,6Z"/>
  <path class="st2" d="M237,160.3c2.4,1.4,8,1.4,9.4-2.9,1.8-5.5-3.3-13.5-7.7-12.4-3.6.9-5.4,13-1.6,15.2Z"/>
  <path class="st2" d="M64.3,160.1c-2.4,1.4-8,1.4-9.4-2.9-1.8-5.5,3.3-13.5,7.7-12.4,3.6.9,5.4,13,1.6,15.2Z"/>
</svg>