<?xml version="1.0" encoding="UTF-8"?><svg id="Layer_1" xmlns="http://www.w3.org/2000/svg" width="300" height="200" viewBox="0 0 300 200"><defs><style>.cls-1{fill:#fff;}.cls-2{fill:#3ed6ff;}.cls-3{fill:#e6e6e6;stroke:#000;stroke-miterlimit:10;}</style></defs><circle class="cls-1" cx="73.22" cy="79.35" r="11.65"/><circle class="cls-1" cx="175.79" cy="84.35" r="9.17"/><circle class="cls-1" cx="204.77" cy="79.82" r="13.75"/><circle class="cls-1" cx="180.68" cy="73.48" r="6.78"/><path class="cls-3" d="M232.71,158.74c2.4,1.42,8.04,1.35,9.38-2.85,1.77-5.53-3.27-13.53-7.74-12.37-3.64.95-5.39,13.01-1.64,15.22Z"/><path class="cls-3" d="M68.87,157.85c-2.4,1.42-8.04,1.35-9.38-2.85-1.77-5.53,3.27-13.53,7.74-12.37,3.64.95,5.39,13.01,1.64,15.22Z"/><path class="cls-3" d="M30.09,76.25c-.23,19.36,3.3,47.14,22.82,66.01,18.14,17.54,46.48,18.09,102.41,18.47,47.34.32,71.33.19,87.2-14.13,23.15-20.89,22.93-55.31,22.27-67.64-33.95,3.84-72.32,6.33-114.36,5.98-44.51-.37-84.9-3.85-120.34-8.69h0Z"/><circle class="cls-1" cx="40.62" cy="75.09" r="6.18"/><circle class="cls-1" cx="61.6" cy="76.66" r="5.03"/><circle class="cls-1" cx="51.69" cy="73.94" r="7.33"/><circle class="cls-1" cx="90.12" cy="77.11" r="10.47"/><circle class="cls-1" cx="103.77" cy="79.37" r="5.51"/><circle class="cls-1" cx="109.78" cy="72.12" r="5.51"/><circle class="cls-1" cx="121.98" cy="75.64" r="7.93"/><circle class="cls-1" cx="112.22" cy="81.9" r="7.93"/><circle class="cls-1" cx="131.78" cy="81.9" r="7.93"/><circle class="cls-1" cx="143.88" cy="78.22" r="9.17"/><circle class="cls-1" cx="158.67" cy="81.9" r="9.17"/><circle class="cls-1" cx="154.24" cy="71.39" r="5.01"/><circle class="cls-1" cx="148.31" cy="67.82" r="3.61"/><circle class="cls-1" cx="189.15" cy="79.4" r="6.78"/><circle class="cls-1" cx="223.53" cy="77.25" r="8.82"/><circle class="cls-1" cx="233.87" cy="70.26" r="6.06"/><circle class="cls-1" cx="216.81" cy="70.22" r="3.62"/><circle class="cls-1" cx="241.63" cy="73.27" r="6.67"/><circle class="cls-1" cx="249.51" cy="71.75" r="5.14"/><circle class="cls-1" cx="258.4" cy="72.64" r="3.81"/><path class="cls-3" d="M32,72.58c-1.03-.19-2.07.25-2.66,1.12-1.1,1.61-2.15,4.25,1.16,5.94,4.99,2.56,125.2,23.99,232.31.53,1.62-.35,4.16-.4,3.88-2.84-.38-3.44-1.09-4.62-3.53-4.89-10.9-1.21-95.36,24.68-231.16.14Z"/><circle class="cls-1" cx="161.44" cy="63.92" r="2.75"/><circle class="cls-1" cx="156.8" cy="56.89" r="1.96"/><circle class="cls-1" cx="60.2" cy="67.91" r="1.26"/><circle class="cls-1" cx="243.56" cy="63.56" r="1.26"/><circle class="cls-1" cx="237.38" cy="59.15" r="2.28"/><circle class="cls-1" cx="243.7" cy="58" r="1.26"/><circle class="cls-1" cx="167.09" cy="74.57" r="6.78"/><circle class="cls-1" cx="172.03" cy="68.54" r="4.38"/><path class="cls-2" d="M36.37,112.16c1.32,3.73,2.29,6.46,2.42,6.77.02.04.04.08.04.08.06.13.17.41.32.75,0,.01,0,.02,0,.02.65,1.49,1.4,3.05,2.28,4.67,3.55,6.62,7.35,11.09,9.72,13.85,3.49,4.06,5.6,6.52,9.23,8.99,2.54,1.73,5.72,3.39,13.36,5.59,11,3.17,19.38,4.07,19.38,4.07,21.85,2.52,58.22,2.48,59.75,2.49,15.8.06,61.99.55,76.58-6.7,6.72-3.34,12.28-7.99,12.28-7.99,3.31-2.67,5.64-5.24,7.16-7.1,8.27-10.11,10.6-20.15,11.09-22.61.24-1.22.39-2.23.48-2.89-29.04,6.1-65.11,11.21-106.63,11.62-46.31.46-86.2-5.05-117.48-11.62Z"/><path class="cls-3" d="M237.02,160.29c2.4,1.42,8.04,1.35,9.38-2.85,1.77-5.53-3.27-13.53-7.74-12.37-3.64.95-5.39,13.01-1.64,15.22Z"/><path class="cls-3" d="M64.31,160.14c-2.4,1.42-8.04,1.35-9.38-2.85-1.77-5.53,3.27-13.53,7.74-12.37,3.64.95,5.39,13.01,1.64,15.22Z"/></svg>