<?xml version="1.0" encoding="UTF-8"?>
<svg id="Layer_1" xmlns="http://www.w3.org/2000/svg" version="1.1" viewBox="0 0 400 200">
  <!-- Generator: Adobe Illustrator 29.0.1, SVG Export Plug-In . SVG Version: 2.1.0 Build 192)  -->
  <defs>
    <style>
      .st0 {
        fill: #0000c0;
      }

      .st1 {
        isolation: isolate;
      }

      .st2 {
        fill: #fff;
      }
    </style>
  </defs>
  <path class="st2" d="M350.4,72.6c-18-11.9-43.4-11.2-60.6.8,1.3-4.4,2-9,1.8-13.7-.9-28.2-29-50.2-62.8-49.2-25.6.8-47.2,14.5-55.8,33.4-8.7-14-26.6-23.3-46.9-22.7-28.3.9-50.7,20.7-50,44.3,0,3.4.7,6.8,1.7,9.9-3.7-.8-7.7-1.2-11.7-1.1-22.7.7-40.6,16.5-40,35.4.5,16.5,15,29.9,33.8,32.5-1.2,2.9-1.9,6-1.8,9.3.4,14.2,14.5,25.2,31.5,24.7,10.4-.3,19.4-4.9,24.8-11.6,3,4.6,7.1,8.8,12.3,12.2,20.7,13.7,50.9,10.7,67.6-6.7,2.7-2.8,4.9-5.8,6.5-9,3.1,3.6,6.8,7,11.2,9.9,24.7,16.4,60.9,12.8,80.8-8.1,6.1-6.4,9.9-13.6,11.6-21,18.6,5.2,40.1.4,53.2-13.2,16.6-17.4,13.4-42.6-7.3-56.2h0Z"/>
  <g class="st1">
    <g class="st1">
      <path class="st0" d="M113.1,101.2c-1.6,0-2.5.7-2.5,2.3,0,3.4,1.8,8.2,2.4,14.6h-17c.5-6.8,2.4-11.1,2.4-14.6s-.8-2.3-2.4-2.3-3.9.5-5.7,1.2l-.4-8.9h29.3l-.4,8.9c-1.6-.7-4-1.2-5.7-1.2h0Z"/>
      <path class="st0" d="M136.5,118h-15.4c1.2-9.4,1.2-17.6,0-24.6h15.4c-1.2,7-1.2,15.2,0,24.6Z"/>
      <path class="st0" d="M138.5,93.5h15.6c.1,4.8-2,9.7-2,12.9s.7,2.1,2.5,2.1c2.9,0,6.8-1.1,10.1-2.4l.5,12h-26.8c1.2-9.4,1.2-17.6,0-24.6h0Z"/>
      <path class="st0" d="M167.6,93.5c5.8,0,12.6-.7,19.4-.7s10.1,2.1,10.1,5.4-2.3,4-4.5,4.3c-1.1.2-1.8.5-1.8,1.1s.7,1,1.8,1c4.2,0,6.6,2.4,6.6,6.2s-4.3,7.6-10.9,7.6-8.9-.4-12.2-.4-6.1,0-8.5.4c1.2-9.1,1.2-18.3,0-25h0ZM182.8,111c1.1,0,1.9-1.2,1.9-2.6s-.8-3.1-1.9-3.1-1.8,1.3-1.8,3.1.7,2.6,1.8,2.6ZM182.8,102.1c1.3,0,1.8-1,1.8-2.3s-.5-2.7-1.8-2.7-1.7,1.3-1.7,2.7.4,2.3,1.7,2.3Z"/>
      <path class="st0" d="M207.4,93.5h21.1c.8,7,6.1,15.2,7.4,24.6h-17.7c.4-3.9.5-6.1.5-7.8s-.6-2.5-1.8-2.5-1.8,1-1.8,2.5.2,3.9.5,7.8h-14.4c1.2-9.5,7.4-17.7,6.1-24.6h0ZM216.9,103.9c1.3,0,1.8-1.2,1.8-2.7s-.4-3.5-1.7-3.5-1.8,1.6-1.8,3.5.4,2.7,1.7,2.7Z"/>
      <path class="st0" d="M238.1,106.4c0-10.4,5.2-13.8,12.7-13.8s9.4.9,16.4.1v8.1c-3.5-1.2-6.4-1.7-9.1-1.7-4.9,0-6.1,1.8-6.1,5.1s.4,4.1,1.8,4.1,2-1.9,1.3-5.9l12.1-.2c-.8,4.9-.8,11.8,0,16.6-7-.8-12.7.1-16.4.1-7.4,0-12.7-4.6-12.7-12.4h0Z"/>
      <path class="st0" d="M269.4,93.5h28.3l-.6,7.3c-2.9-.9-7.5-1.4-10.7-1.4s-3.4.5-3.4,1.6.6,1.3,1.7,1.3c1.6,0,6.9-.7,10.4-.7v5.7c-3.9,0-8.9-.6-10.6-.6s-1.4.5-1.4,1.3.7,1.5,3.8,1.5,7.6-.5,10.9-1.3l.9,9.9h-29.2c1.2-9.4,1.2-17.6,0-24.6h0Z"/>
    </g>
  </g>
  <circle class="st2" cx="60.6" cy="67.8" r="2.8"/>
  <circle class="st2" cx="68" cy="57.2" r="6.3"/>
  <circle class="st2" cx="313.7" cy="156" r="8.5"/>
  <circle class="st2" cx="301.2" cy="166.8" r="4.3"/>
  <circle class="st2" cx="311.8" cy="169.8" r="2.9"/>
</svg>