<?xml version="1.0" encoding="UTF-8"?><svg id="Layer_1" xmlns="http://www.w3.org/2000/svg" width="200" height="100" viewBox="0 0 200 100"><defs><style>.cls-1{fill:#0000c0;}</style></defs><path class="cls-1" d="M30.99,31.12h22.25c.17,6.87-2.79,13.8-2.79,18.35,0,1.75,1.04,2.91,3.62,2.91,4.08,0,9.67-1.52,14.33-3.37l.71,17.06H31.01c1.75-13.4,1.75-25.05,0-34.95h-.02Z"/><path class="cls-1" d="M94.25,66.06h-21.85c1.75-13.4,1.75-25.05,0-34.95h21.85c-1.75,9.9-1.75,21.56,0,34.95Z"/><path class="cls-1" d="M135.8,66.06h-28.26c-1.17-9.9-8.74-21.56-10.49-34.95h25.51c-.75,5.53-1.1,9.03-1.1,12,0,2.27.94,3.85,2.56,3.85s2.56-1.58,2.56-3.85c0-2.97-.35-6.47-1.1-12h20.79c-1.75,13.51-10.49,25.11-10.49,34.95h.02Z"/><path class="cls-1" d="M159.45,34.6c6.82,0,9.55,2.21,9.55,7.74,0,5.12-2.74,7.16-9.55,7.16s-9.61-2.04-9.61-7.16c0-5.53,2.74-7.74,9.61-7.74ZM149.84,60.07c0-5.53,2.74-7.74,9.61-7.74s9.55,2.21,9.55,7.74c0,5.12-2.74,7.16-9.55,7.16s-9.61-2.04-9.61-7.16Z"/></svg>