<?xml version="1.0" encoding="UTF-8"?><svg id="Layer_1" xmlns="http://www.w3.org/2000/svg" width="300" height="100" viewBox="0 0 300 100"><defs><style>.cls-1{fill:#0000c0;}</style></defs><path class="cls-1" d="M36.22,31.45h25.37c11.6,0,16.45,4.74,16.45,13.48,0,7.14-4.63,11.54-11.54,11.54-5.26,0-7.71-2.86-7.71-7.08,0-2.4.8-4.17.8-6.23,0-1.94-.69-3.14-2.11-3.14s-2.23,1.14-2.23,3.54c0,6.51.29,15.08,1.26,22.17h-20.28c1.71-13.14,1.71-24.57,0-34.28h0Z"/><path class="cls-1" d="M81.64,48.3c0-10.4,7.54-18,21.08-18s21.08,7.6,21.08,18-7.54,18.57-21.08,18.57-21.08-7.83-21.08-18.57ZM102.72,47.84c1.77,0,3.31-1.83,3.31-4.86,0-3.49-1.54-5.88-3.31-5.88s-3.37,2.4-3.37,5.88c0,3.03,1.54,4.86,3.37,4.86Z"/><path class="cls-1" d="M148.31,65.72h-21.42c1.71-13.14,1.71-24.57,0-34.28h21.42c-1.71,9.71-1.71,21.14,0,34.28Z"/><path class="cls-1" d="M152.42,31.45h11.6c6.68,0,12.68,5.08,13.25,13.03.17,2.4.51,6,2.86,6,4.06,0-.8-13.31-2-19.02h18.91c-1.71,9.71-1.71,21.14,0,34.28h-22c-.46-8.06.17-17.71-2.91-17.71-3.6,0-2.4,9.94-.23,17.71h-20.85c2.51-9.71,2.91-24.68,1.37-34.28h0Z"/><path class="cls-1" d="M232.18,42.19c-2.17,0-3.43.97-3.43,3.2,0,4.74,2.57,11.37,3.31,20.34h-23.71c.74-9.43,3.31-15.42,3.31-20.34,0-2.23-1.09-3.2-3.31-3.2s-5.43.74-8,1.71l-.57-12.45h40.85l-.57,12.45c-2.29-.97-5.54-1.71-7.88-1.71h0Z"/><path class="cls-1" d="M253.54,34.87c6.68,0,9.37,2.17,9.37,7.6,0,5.03-2.69,7.03-9.37,7.03s-9.43-2-9.43-7.03c0-5.43,2.69-7.6,9.43-7.6ZM244.12,59.84c0-5.43,2.69-7.6,9.43-7.6s9.37,2.17,9.37,7.6c0,5.03-2.69,7.03-9.37,7.03s-9.43-2-9.43-7.03h0Z"/></svg>