<?xml version="1.0" encoding="UTF-8"?>
<svg id="Layer_1" xmlns="http://www.w3.org/2000/svg" version="1.1" viewBox="0 0 600 400">
  <!-- Generator: Adobe Illustrator 29.0.1, SVG Export Plug-In . SVG Version: 2.1.0 Build 192)  -->
  <defs>
    <style>
      .st0, .st1 {
        fill: gray;
      }

      .st2 {
        fill: #4d4d4d;
      }

      .st2, .st1, .st3, .st4, .st5 {
        stroke-miterlimit: 10;
      }

      .st2, .st3, .st4, .st5 {
        stroke: #000;
      }

      .st1 {
        stroke: #e0e0e0;
      }

      .st3, .st6 {
        fill: #fff;
      }

      .st4 {
        fill: none;
      }

      .st5 {
        fill: #e6e6e6;
      }
    </style>
  </defs>
  <path class="st5" d="M319.87,152.39v-86.22c0-5.2-4.25-9.46-9.46-9.46s-9.46,4.25-9.46,9.46v86.22c-8.77,3.71-14.97,12.42-14.97,22.51v137.89c0,13.43,10.99,24.43,24.43,24.43h0c13.43,0,24.43-10.99,24.43-24.43v-137.89c0-10.09-6.2-18.8-14.97-22.51Z"/>
  <g>
    <line class="st0" x1="311.91" y1="64.01" x2="328.95" y2="63.22"/>
    <path class="st6" d="M311.91,67.01c4.97-.23,9.93-.46,14.9-.69.72-.03,1.43-.07,2.15-.1,1.57-.07,3.07-1.33,3-3-.07-1.56-1.32-3.08-3-3-4.97.23-9.93.46-14.9.69-.72.03-1.43.07-2.15.1-1.57.07-3.07,1.33-3,3,.07,1.56,1.32,3.08,3,3h0Z"/>
  </g>
  <g>
    <line class="st0" x1="312.99" y1="66.97" x2="329.29" y2="67.37"/>
    <path class="st6" d="M312.99,69.97c4.75.11,9.5.23,14.25.34l2.05.05c1.57.04,3.07-1.41,3-3s-1.32-2.96-3-3c-4.75-.11-9.5-.23-14.25-.34l-2.05-.05c-1.57-.04-3.07,1.41-3,3s1.32,2.96,3,3h0Z"/>
  </g>
  <g>
    <line class="st0" x1="313.64" y1="71.73" x2="328.22" y2="71.66"/>
    <path class="st6" d="M313.64,74.73c4.25-.02,8.5-.04,12.75-.06h1.84c1.57-.02,3.07-1.38,3-3.01s-1.32-3.01-3-3c-4.25.02-8.5.04-12.75.06h-1.84c-1.57.02-3.07,1.38-3,3.01s1.32,3.01,3,3h0Z"/>
  </g>
  <g>
    <line class="st0" x1="312.79" y1="75.12" x2="329.09" y2="75.52"/>
    <path class="st6" d="M312.79,78.12c4.75.11,9.5.23,14.25.34l2.05.05c1.57.04,3.07-1.41,3-3s-1.32-2.96-3-3c-4.75-.11-9.5-.23-14.25-.34l-2.05-.05c-1.57-.04-3.07,1.41-3,3s1.32,2.96,3,3h0Z"/>
  </g>
  <g>
    <line class="st0" x1="313.44" y1="79.88" x2="328.03" y2="79.81"/>
    <path class="st6" d="M313.44,82.88c4.25-.02,8.5-.04,12.75-.06h1.84c1.57-.02,3.07-1.38,3-3.01s-1.32-3.01-3-3c-4.25.02-8.5.04-12.75.06h-1.84c-1.57.02-3.07,1.38-3,3.01s1.32,3.01,3,3h0Z"/>
  </g>
  <g>
    <line class="st0" x1="314.31" y1="83.74" x2="328.24" y2="82.63"/>
    <path class="st6" d="M314.31,86.74c4.06-.32,8.12-.64,12.18-.96.58-.05,1.17-.09,1.75-.14,1.56-.12,3.08-1.29,3-3-.07-1.52-1.32-3.13-3-3-4.06.32-8.12.64-12.18.96-.58.05-1.17.09-1.75.14-1.56.12-3.08,1.29-3,3,.07,1.52,1.32,3.13,3,3h0Z"/>
  </g>
  <line class="st1" x1="309.64" y1="64.52" x2="329.71" y2="64.72"/>
  <line class="st1" x1="312.87" y1="82.99" x2="329.74" y2="82.95"/>
  <path class="st6" d="M308.91,64.01c.26,6.44.53,12.87.79,19.31.04.93.08,1.85.11,2.78.07,1.62,1.33,3,3,3,1.57,0,3.07-1.37,3-3-.26-6.44-.53-12.87-.79-19.31-.04-.93-.08-1.85-.11-2.78-.07-1.62-1.33-3-3-3-1.57,0-3.07,1.37-3,3h0Z"/>
  <line class="st1" x1="317.47" y1="68.54" x2="330.51" y2="68.58"/>
  <line class="st1" x1="315.64" y1="78.26" x2="330.33" y2="76.73"/>
  <line class="st1" x1="317.82" y1="79.76" x2="329.34" y2="81.02"/>
  <line class="st1" x1="314.43" y1="72.48" x2="329.39" y2="70.64"/>
  <line class="st1" x1="317.94" y1="75.44" x2="329.52" y2="72.87"/>
  <g>
    <line class="st0" x1="312.92" y1="87.62" x2="329.29" y2="88.23"/>
    <path class="st6" d="M312.92,90.62c4.77.18,9.54.35,14.3.53.69.03,1.37.05,2.06.08,1.57.06,3.07-1.42,3-3-.08-1.68-1.32-2.94-3-3-4.77-.18-9.54-.35-14.3-.53-.69-.03-1.37-.05-2.06-.08-1.57-.06-3.07,1.42-3,3,.08,1.68,1.32,2.94,3,3h0Z"/>
  </g>
  <g>
    <line class="st0" x1="312.68" y1="86.91" x2="328.82" y2="86.3"/>
    <path class="st6" d="M312.68,89.91c4.7-.18,9.41-.35,14.11-.53.68-.03,1.35-.05,2.03-.08,1.57-.06,3.07-1.34,3-3-.07-1.58-1.32-3.06-3-3-4.7.18-9.41.35-14.11.53-.68.03-1.35.05-2.03.08-1.57.06-3.07,1.34-3,3,.07,1.58,1.32,3.06,3,3h0Z"/>
  </g>
  <line class="st1" x1="317.33" y1="86.56" x2="330.28" y2="86.56"/>
  <path class="st4" d="M300.96,152.05c-.88-.21,8.94,9.96,18.91.79"/>
  <ellipse class="st2" cx="321.25" cy="239.51" rx="10.05" ry="48.06"/>
  <ellipse class="st3" cx="322.21" cy="239.91" rx="6.22" ry="36.64"/>
  <path class="st4" d="M316.77,227.32c.07-.01,3.04.49,5.91.37,2.29-.09,5.67-1.16,5.72-1.15"/>
  <path class="st4" d="M316.53,250.86c.07-.01,3.04.49,5.91.37,2.29-.09,5.67-1.16,5.72-1.15"/>
</svg>